<?xml version="1.0" encoding="utf-8"?>
<!-- Generator: Adobe Illustrator 17.1.0, SVG Export Plug-In . SVG Version: 6.00 Build 0)  -->
<!DOCTYPE svg PUBLIC "-//W3C//DTD SVG 1.1//EN" "http://www.w3.org/Graphics/SVG/1.1/DTD/svg11.dtd">
<svg version="1.1" id="Layer_1" xmlns="http://www.w3.org/2000/svg" xmlns:xlink="http://www.w3.org/1999/xlink" x="0px" y="0px"
	 viewBox="0 0 334.8 389.4" enable-background="new 0 0 334.8 389.4" xml:space="preserve">
<g>
	<g>
		<path fill="#8F92B7" d="M3.5,20.2C1.2,17.9,0,15,0,11.8c0-3.2,1.2-6.1,3.5-8.4c4.6-4.6,12.1-4.6,16.7,0l147.2,147.2L314.6,3.5
			c4.6-4.6,12.1-4.6,16.7,0c4.6,4.6,4.6,12.1,0,16.7L175.8,175.8c-4.6,4.6-12.1,4.6-16.7,0L3.5,20.2z"/>
	</g>
</g>
<g opacity="0.5">
	<g>
		<path fill="#8F92B7" d="M3.5,125.3C1.2,123,0,120.1,0,116.9c0-3.2,1.2-6.1,3.5-8.4c4.6-4.6,12.1-4.6,16.7,0l147.2,147.2
			l147.2-147.2c4.6-4.6,12.1-4.6,16.7,0c4.6,4.6,4.6,12.1,0,16.7L175.8,280.8c-4.6,4.6-12.1,4.6-16.7,0L3.5,125.3z"/>
	</g>
</g>
<g opacity="0.15">
	<g>
		<path fill="#8F92B7" d="M3.5,230.3C1.2,228,0,225.1,0,221.9c0-3.2,1.2-6.1,3.5-8.4c4.6-4.6,12.1-4.6,16.7,0l147.2,147.2
			l147.2-147.2c4.6-4.6,12.1-4.6,16.7,0c4.6,4.6,4.6,12.1,0,16.7L175.8,385.9c-4.6,4.6-12.1,4.6-16.7,0L3.5,230.3z"/>
	</g>
</g>
</svg>
