<?xml version="1.0" encoding="utf-8"?>
<!-- Generator: Adobe Illustrator 21.0.0, SVG Export Plug-In . SVG Version: 6.00 Build 0)  -->
<svg version="1.1" id="Capa_1" xmlns="http://www.w3.org/2000/svg" xmlns:xlink="http://www.w3.org/1999/xlink" x="0px" y="0px"
	 viewBox="0 0 430.1 430.1" style="enable-background:new 0 0 430.1 430.1;" xml:space="preserve">
<style type="text/css">
	.st0{fill:#C9CDFF;}
</style>
<g>
	<path id="Dribbble" class="st0" d="M215.1,0C96.3,0,0,96.3,0,215.1s96.3,215,215.1,215s215.1-96.3,215.1-215
		C430.1,96.3,333.8,0,215.1,0z M346.8,111.5c21,26.6,34.1,59.6,35.8,95.7c-24.3-5.2-47.2-7.7-68.6-7.7l0,0h-0.2
		c-17.2,0-33.4,1.6-48.6,4.3c-3.7-9.1-7.5-17.8-11.2-26.1C287.9,162.8,320.5,141.6,346.8,111.5z M215.1,47.3
		c39.6,0,75.9,13.8,104.6,36.9c-22,26.3-51,45.4-82.4,58.9c-22-42.6-43.3-73.1-57.9-91.7C190.9,48.7,202.8,47.3,215.1,47.3z
		 M140.9,64.8c11.6,13.8,35,44,59.9,91.3c-50.6,15.1-101.7,18.6-132.5,18.6c-0.9,0-1.8,0-2.6,0l0,0c-5.2,0-9.7-0.1-13.4-0.2
		C64.3,126.3,97.3,86.4,140.9,64.8z M47.3,215.1c0-0.8,0-1.6,0.1-2.4c4.8,0.2,10.9,0.3,18.3,0.3l0,0c33.7-0.2,92.6-3,152.3-21.9
		c3.3,7.1,6.5,14.5,9.7,22.2c-39.9,13.3-71.2,34.6-94.5,55.7c-22.4,20.4-37.5,40.5-46.3,54C62.2,293.8,47.3,256.2,47.3,215.1z
		 M215.1,382.9c-37.3,0-71.8-12.3-99.7-33.1c5.9-9.8,18.7-28.5,38.9-47.9c20.8-20,49.6-40.5,87.2-52.8
		c12.8,35.8,24.3,76.7,33.1,122.8C256.1,378.9,236,382.9,215.1,382.9z M310,353.1c-8.5-41.7-19.2-79.2-31-112.7
		c10.9-1.6,22.3-2.4,34.4-2.4h0.4l0,0l0,0c20,0,42,2.5,65.9,7.9C371.5,290.1,345.8,328.4,310,353.1z"/>
</g>
</svg>
