<?xml version="1.0" encoding="utf-8"?>
<!-- Generator: Adobe Illustrator 21.0.0, SVG Export Plug-In . SVG Version: 6.00 Build 0)  -->
<svg version="1.1" id="Capa_1" xmlns="http://www.w3.org/2000/svg" xmlns:xlink="http://www.w3.org/1999/xlink" x="0px" y="0px"
	 viewBox="0 0 32 32" style="enable-background:new 0 0 32 32;" xml:space="preserve">
<style type="text/css">
	.st0{fill:#6E7195;}
</style>
<g>
	<g id="banknote">
		<path class="st0" d="M31.4,10.6l-10-10c-0.5-0.5-1.2-0.7-1.9-0.5c-0.4,0.1-0.7,0.3-0.9,0.5c-0.2,0.2-0.4,0.5-0.5,0.8
			c-0.5,1.5-1.2,2.7-2.4,3.9c-1.5,1.5-3.6,2.7-5.7,4c-2.3,1.3-4.6,2.7-6.5,4.6c-1.6,1.6-2.7,3.4-3.4,5.6c-0.2,0.7,0,1.5,0.5,2l10,10
			c0.5,0.5,1.2,0.7,1.9,0.5c0.4-0.1,0.7-0.3,0.9-0.5c0.2-0.2,0.4-0.5,0.5-0.8c0.5-1.5,1.2-2.7,2.4-3.9c1.5-1.5,3.6-2.7,5.7-4
			c2.3-1.3,4.6-2.7,6.5-4.6c1.6-1.6,2.7-3.4,3.4-5.6C32.1,11.9,31.9,11.1,31.4,10.6z M12,30c-3.3-3.3-6.7-6.7-10-10
			c2.8-9.2,15.2-8.8,18-18c3.3,3.3,6.7,6.7,10,10C27.2,21.2,14.8,20.8,12,30z"/>
		<path class="st0" d="M19.6,14.9c-0.3-0.3-0.7-0.5-1-0.6c-0.3-0.1-0.7-0.1-1-0.1c-0.3,0-0.7,0.1-1,0.2c-0.3,0.1-0.7,0.3-1,0.4
			c-0.5-0.6-1.1-1.2-1.6-1.8c0.2-0.2,0.5-0.3,0.7-0.3c0.2,0,0.4,0,0.7,0.1c0.2,0.1,0.4,0.1,0.6,0.1c0.2,0,0.3,0,0.5-0.1
			c0.1-0.1,0.2-0.3,0.2-0.5c0-0.2-0.1-0.4-0.2-0.6c-0.2-0.2-0.5-0.4-0.8-0.4c-0.3-0.1-0.6,0-0.9,0c-0.3,0.1-0.6,0.2-0.9,0.4
			s-0.5,0.3-0.7,0.5c-0.1-0.1-0.1-0.1-0.2-0.2C12.8,12,12.7,12,12.6,12c-0.1,0-0.2,0-0.3,0.1c-0.1,0.1-0.1,0.2-0.1,0.3
			c0,0.1,0.1,0.2,0.1,0.3c0.1,0.1,0.1,0.1,0.2,0.2c-0.3,0.3-0.5,0.6-0.6,1c-0.2,0.4-0.3,0.7-0.3,1.1c0,0.4,0,0.7,0.1,1
			c0.1,0.3,0.3,0.6,0.6,0.8c0.5,0.4,1,0.6,1.7,0.5c0.6,0,1.3-0.2,2.1-0.6c0.6,0.7,1.2,1.4,1.8,2c-0.3,0.2-0.5,0.3-0.7,0.4
			c-0.2,0-0.4,0-0.5,0c-0.2,0-0.3-0.1-0.4-0.2c-0.1-0.1-0.3-0.2-0.4-0.2c-0.1-0.1-0.3-0.1-0.4-0.1s-0.3,0.1-0.4,0.2
			c-0.2,0.1-0.2,0.3-0.2,0.5c0,0.2,0.1,0.4,0.3,0.6c0.2,0.2,0.4,0.4,0.7,0.5s0.6,0.2,0.9,0.2c0.3,0,0.7,0,1.1-0.2
			c0.4-0.1,0.7-0.4,1.1-0.7c0.2,0.2,0.4,0.3,0.5,0.5c0.1,0.1,0.2,0.1,0.3,0.1c0.1,0,0.2-0.1,0.3-0.1c0.1-0.1,0.1-0.2,0.1-0.3
			c0-0.1-0.1-0.2-0.1-0.2c-0.2-0.1-0.4-0.3-0.5-0.4c0.3-0.4,0.5-0.8,0.7-1.1c0.2-0.4,0.3-0.8,0.3-1.1c0-0.3,0-0.7-0.1-0.9
			C20,15.4,19.8,15.1,19.6,14.9z M14,15.6c-0.3,0-0.5-0.1-0.7-0.3c-0.1-0.1-0.2-0.2-0.2-0.3c0-0.1-0.1-0.3,0-0.4
			c0-0.1,0.1-0.3,0.1-0.5c0.1-0.2,0.2-0.3,0.3-0.5c0.5,0.5,1,1.1,1.5,1.6C14.6,15.5,14.3,15.6,14,15.6z M18.7,17.6
			c-0.1,0.2-0.2,0.3-0.3,0.4c-0.6-0.6-1.1-1.2-1.7-1.8c0.1-0.1,0.3-0.1,0.5-0.2s0.3-0.1,0.5-0.1c0.2,0,0.3,0,0.5,0
			c0.2,0,0.3,0.1,0.5,0.3c0.1,0.1,0.2,0.3,0.3,0.4c0,0.2,0,0.3,0,0.5C18.8,17.2,18.8,17.4,18.7,17.6z"/>
		<path class="st0" d="M14.7,22.2L14.7,22.2c-0.6,0.5-1.2,1-1.8,1.6c-0.5,0.5-1,1.1-1.5,1.7l-0.7,0.9l0,0c-0.1,0.2-0.1,0.5,0.1,0.6
			c0.2,0.2,0.5,0.2,0.7,0c0,0,0.1-0.1,0.1-0.1l0.6-0.9c0.4-0.5,0.9-1.1,1.4-1.6c0.6-0.6,1.1-1,1.7-1.5l0,0c0,0,0,0,0.1,0
			c0.2-0.2,0.2-0.5,0-0.7C15.2,22,14.9,22,14.7,22.2z"/>
		<path class="st0" d="M18.4,7.7c-0.5,0.5-1.1,1-1.7,1.4c0,0-0.1,0-0.1,0.1c-0.2,0.2-0.2,0.5,0,0.7c0.2,0.2,0.5,0.2,0.7,0l0,0
			c0.6-0.5,1.2-1,1.8-1.6c0.5-0.5,1-1.1,1.5-1.7l0.7-0.9l0,0c0.2-0.2,0.2-0.5,0-0.7c-0.2-0.2-0.5-0.2-0.7,0c0,0-0.1,0.1-0.1,0.1
			l-0.7,0.9C19.3,6.7,18.9,7.2,18.4,7.7z"/>
	</g>
</g>
</svg>
