<?xml version="1.0" encoding="utf-8"?>
<!-- Generator: Adobe Illustrator 21.0.0, SVG Export Plug-In . SVG Version: 6.00 Build 0)  -->
<svg version="1.1" id="Capa_1" xmlns="http://www.w3.org/2000/svg" xmlns:xlink="http://www.w3.org/1999/xlink" x="0px" y="0px"
	 viewBox="0 0 488.2 364.3" style="enable-background:new 0 0 488.2 364.3;" xml:space="preserve">
<style type="text/css">
	.st0{fill:#6E7195;}
</style>
<g>
	<g>
		<path class="st0" d="M265.2,288.3H33.6c-5.3,0-9.6-4.3-9.6-9.6V96.1h408.5v24c0,6.6,5.4,12,12,12s12-5.4,12-12V33.6
			c0-18.5-15.1-33.6-33.6-33.6H33.6C15,0,0,15.1,0,33.6v245.1c0,18.5,15.1,33.6,33.6,33.6h231.7c6.6,0,12-5.4,12-12
			S271.9,288.3,265.2,288.3z M33.6,24h389.3c5.3,0,9.6,4.3,9.6,9.6v38.5H23.9V33.6C23.9,28.3,28.3,24,33.6,24z"/>
		<path class="st0" d="M240.2,185.2c0-6.6-5.4-12-12-12H84c-6.6,0-12,5.4-12,12s5.4,12,12,12h144.2
			C234.9,197.2,240.2,191.8,240.2,185.2z"/>
		<path class="st0" d="M84,216.2c-6.6,0-12,5.4-12,12s5.4,12,12,12h57.7c6.6,0,12-5.4,12-12s-5.4-12-12-12H84z"/>
		<path class="st0" d="M82.6,153.7h144.2c6.6,0,12-5.4,12-12s-5.4-12-12-12H82.6c-6.6,0-12,5.4-12,12S75.9,153.7,82.6,153.7z"/>
		<path class="st0" d="M476.3,236.3h-17.6v-28c0-34.7-28.3-63-63-63s-63,28.3-63,63v28h-17.6c-6.6,0-12,5.4-12,12v104
			c0,6.6,5.4,12,12,12h161.1c6.6,0,12-5.4,12-12v-104C488.3,241.6,482.9,236.3,476.3,236.3z M356.7,208.2c0-21.5,17.5-39,39-39
			s39,17.5,39,39v28h-78V208.2z M464.3,340.2H327.1v-80h137.1L464.3,340.2L464.3,340.2z"/>
	</g>
</g>
</svg>
