<?xml version="1.0" encoding="utf-8"?>
<!-- Generator: Adobe Illustrator 21.0.0, SVG Export Plug-In . SVG Version: 6.00 Build 0)  -->
<svg version="1.1" id="Layer_1" xmlns="http://www.w3.org/2000/svg" xmlns:xlink="http://www.w3.org/1999/xlink" x="0px" y="0px"
	 viewBox="0 0 490 490" style="enable-background:new 0 0 490 490;" xml:space="preserve">
<style type="text/css">
	.st0{fill:#6E7195;}
</style>
<g>
	<g>
		<path class="st0" d="M469.3,448.4h-36.4V98.8c0-11.4-9.4-20.8-20.8-20.8s-20.8,9.4-20.8,20.8v349.6h-69.7V185.2
			c0-11.4-9.4-20.8-20.8-20.8s-20.8,9.4-20.8,20.8v263.2h-70.7V287.1c0-11.4-9.4-20.8-20.8-20.8c-11.4,0-20.8,9.4-20.8,20.8v161.3
			H98V322.5c0-11.4-9.4-20.8-20.8-20.8s-20.8,9.4-20.8,20.8v125.9H20.9c-11.4,0-20.8,9.4-20.8,20.8S9.5,490,20.9,490h447.3
			c11.4,0,21.8-9.4,21.8-20.8C490,457.7,480.6,448.4,469.3,448.4z"/>
		<path class="st0" d="M52,214.3c6.1-1,146.6-33.7,254.9-142.3v40.3c0,11.4,9.4,20.8,20.8,20.8s20.8-9.4,20.8-21.8V20.8
			c0-11.4-9.4-20.8-20.8-20.8h-91.5c-11.4,0-20.8,9.4-20.8,20.8s9.4,20.8,20.8,20.8h42.9C179.7,143.8,43.7,175.8,42.7,175.8
			C31.2,177.9,25,188.3,27,199.7C30.3,213,44.3,216.9,52,214.3z"/>
	</g>
</g>
</svg>
