<?xml version="1.0" encoding="utf-8"?>
<!-- Generator: Adobe Illustrator 21.0.0, SVG Export Plug-In . SVG Version: 6.00 Build 0)  -->
<svg version="1.1" id="Layer_1" xmlns="http://www.w3.org/2000/svg" xmlns:xlink="http://www.w3.org/1999/xlink" x="0px" y="0px"
	 viewBox="0 0 512 358.1" style="enable-background:new 0 0 512 358.1;" xml:space="preserve">
<style type="text/css">
	.st0{fill:#32BA94;}
</style>
<g>
	<g>
		<path class="st0" d="M384.8,103.7c-0.7,0-348.7,0-348.7,0l73.3-82.2c4.8-5.3,4.3-13.5-1-18.3c-5.3-4.8-13.5-4.3-18.3,1L7.5,96.9
			c-10.1,11.3-10.1,28.3,0,39.6L90.1,229c2.6,2.9,6.1,4.3,9.7,4.3c3.1,0,6.1-1.1,8.6-3.3c5.3-4.8,5.8-12.9,1-18.3l-73.3-82.2
			c0,0,348,0,348.7,0c55.9,0,101.3,45.4,101.3,101.3s-45.4,101.3-101.3,101.3h-61.6c-7.1,0-12.9,5.8-12.9,12.9
			c0,7.1,5.8,12.9,12.9,12.9h61.6c70.1,0,127.2-57,127.2-127.2C512,160.8,455,103.7,384.8,103.7z"/>
	</g>
</g>
</svg>
