<?xml version="1.0" encoding="utf-8"?>
<!-- Generator: Adobe Illustrator 21.0.0, SVG Export Plug-In . SVG Version: 6.00 Build 0)  -->
<svg version="1.1" id="Слой_1" xmlns="http://www.w3.org/2000/svg" xmlns:xlink="http://www.w3.org/1999/xlink" x="0px" y="0px"
	 viewBox="0 0 46.8 59.1" style="enable-background:new 0 0 46.8 59.1;" xml:space="preserve">
<style type="text/css">
	.st0{fill:url(#SVGID_1_);}
	.st1{fill:url(#SVGID_2_);}
	.st2{fill:url(#SVGID_3_);}
	.st3{fill:url(#SVGID_4_);}
</style>
<linearGradient id="SVGID_1_" gradientUnits="userSpaceOnUse" x1="23.4133" y1="61.6" x2="23.4133" y2="19.9" gradientTransform="matrix(1 0 0 -1 0 61.6)">
	<stop  offset="3.225806e-02" style="stop-color:#D6B45D"/>
	<stop  offset="1" style="stop-color:#A253D4"/>
</linearGradient>
<path class="st0" d="M46.8,40.8L39.9,0.6c0-0.2-0.1-0.4-0.4-0.5c-0.1,0-0.3-0.1-0.4-0.1S39,0,38.9,0.1L0.5,13.7
	c-0.3,0.1-0.4,0.4-0.5,0.6c0,0.3,0.1,0.6,0.4,0.7l45.3,26.6c0.1,0.1,0.2,0.1,0.4,0.1s0.3-0.1,0.4-0.1C46.7,41.4,46.9,41.1,46.8,40.8
	z M29.1,16.9L1.6,14L38.4,1L29.1,16.9z M29.1,17.9l15.8,22.3L1.9,15L29.1,17.9z M45.9,39.9L30,17.4l9.3-15.9L45.9,39.9z"/>
<g>
	<g>
		
			<linearGradient id="SVGID_2_" gradientUnits="userSpaceOnUse" x1="25.9463" y1="6.95" x2="36.6553" y2="6.95" gradientTransform="matrix(1 0 0 -1 0 61.6)">
			<stop  offset="0" style="stop-color:#5F95EF"/>
			<stop  offset="1" style="stop-color:#A253D4"/>
		</linearGradient>
		<path class="st1" d="M26.7,51.1l9.2,3.8l-6.8,3.6L26.7,51.1 M26.7,50.4c-0.1,0-0.4,0.1-0.5,0.2c-0.2,0.2-0.3,0.5-0.2,0.7l2.4,7.3
			c0.1,0.2,0.2,0.4,0.4,0.4c0.1,0,0.2,0.1,0.3,0.1c0.1,0,0.2,0,0.4-0.1l6.8-3.6c0.2-0.1,0.4-0.4,0.4-0.7c0-0.3-0.2-0.5-0.4-0.7
			l-9.2-3.8C26.9,50.4,26.8,50.4,26.7,50.4L26.7,50.4z"/>
	</g>
</g>
<g>
	
		<linearGradient id="SVGID_3_" gradientUnits="userSpaceOnUse" x1="26.2149" y1="8.575" x2="36.3999" y2="8.575" gradientTransform="matrix(1 0 0 -1 0 61.6)">
		<stop  offset="0" style="stop-color:#5F95EF"/>
		<stop  offset="1" style="stop-color:#A253D4"/>
	</linearGradient>
	<path class="st2" d="M30.4,55.5c-0.1,0-0.3-0.1-0.4-0.2l-3.7-3.9c-0.2-0.2-0.2-0.5,0-0.7s0.5-0.2,0.7,0l3.5,3.8l5.3-0.2
		c0.3,0,0.5,0.2,0.5,0.5s-0.2,0.5-0.5,0.5L30.4,55.5L30.4,55.5z"/>
</g>
<g>
	
		<linearGradient id="SVGID_4_" gradientUnits="userSpaceOnUse" x1="28.5848" y1="4.8688" x2="30.9189" y2="4.8688" gradientTransform="matrix(1 0 0 -1 0 61.6)">
		<stop  offset="0" style="stop-color:#5F95EF"/>
		<stop  offset="1" style="stop-color:#A253D4"/>
	</linearGradient>
	<path class="st3" d="M29.1,58.9c-0.1,0-0.1,0-0.2,0c-0.3-0.1-0.4-0.4-0.3-0.6l1.3-3.4c0.1-0.3,0.4-0.4,0.6-0.3
		c0.3,0.1,0.4,0.4,0.3,0.6l-1.3,3.4C29.5,58.8,29.3,58.9,29.1,58.9z"/>
</g>
</svg>
