<?xml version="1.0" encoding="utf-8"?>
<!-- Generator: Adobe Illustrator 21.0.0, SVG Export Plug-In . SVG Version: 6.00 Build 0)  -->
<svg version="1.1" id="Слой_1" xmlns="http://www.w3.org/2000/svg" xmlns:xlink="http://www.w3.org/1999/xlink" x="0px" y="0px"
	 viewBox="0 0 40.4 81.8" style="enable-background:new 0 0 40.4 81.8;" xml:space="preserve">
<style type="text/css">
	.st0{opacity:0.4;}
	.st1{fill:#888BB0;}
	.st2{opacity:0.4;fill:url(#SVGID_1_);enable-background:new    ;}
	.st3{fill:url(#SVGID_2_);}
	.st4{fill:#6F7292;}
</style>
<g class="st0">
	<g>
		<path class="st1" d="M33.7,5.3c0.7,0,1.3,0.6,1.3,1.3c0,0.7-0.6,1.3-1.3,1.3c-0.7,0-1.3-0.6-1.3-1.3C32.4,5.9,33,5.3,33.7,5.3
			 M33.7,4.7c-1,0-1.9,0.9-1.9,1.9s0.9,1.9,1.9,1.9s1.9-0.9,1.9-1.9C35.7,5.6,34.9,4.7,33.7,4.7L33.7,4.7z"/>
	</g>
</g>
<linearGradient id="SVGID_1_" gradientUnits="userSpaceOnUse" x1="-14.0962" y1="376.5448" x2="-8.065" y2="362.0448" gradientTransform="matrix(0.7407 0 0 0.7407 41.8768 -266.7631)">
	<stop  offset="0" style="stop-color:#42435D;stop-opacity:0"/>
	<stop  offset="1" style="stop-color:#888BB0"/>
</linearGradient>
<path class="st2" d="M33.7,1.1c3,0,5.5,2.4,5.5,5.5s-2.4,5.5-5.5,5.5s-5.5-2.4-5.5-5.5S30.7,1.1,33.7,1.1 M33.7,0C30,0,27,3,27,6.7
	s3,6.7,6.7,6.7s6.7-3,6.7-6.7S37.5,0,33.7,0L33.7,0z"/>
<g class="st0">
	
		<linearGradient id="SVGID_2_" gradientUnits="userSpaceOnUse" x1="-14.7753" y1="377.4471" x2="-41.1503" y2="438.9471" gradientTransform="matrix(0.7407 0 0 0.7407 41.8768 -266.7631)">
		<stop  offset="0" style="stop-color:#42435D;stop-opacity:0"/>
		<stop  offset="1" style="stop-color:#888BB0"/>
	</linearGradient>
	<path class="st3" d="M2.6,78.8c-0.1,0-0.1,0-0.1,0c-0.2-0.1-0.3-0.3-0.2-0.5l29-67c0.1-0.2,0.3-0.3,0.5-0.2s0.3,0.3,0.2,0.5l-29,67
		C2.9,78.7,2.7,78.8,2.6,78.8z"/>
</g>
<g>
	<g>
		<path class="st4" d="M1.9,78.6c0.7,0,1.3,0.6,1.3,1.3c0,0.7-0.6,1.3-1.3,1.3c-0.7,0-1.3-0.6-1.3-1.3C0.6,79.2,1.2,78.6,1.9,78.6
			 M1.9,78c-1,0-1.9,0.9-1.9,1.9s0.9,1.9,1.9,1.9s1.9-0.9,1.9-1.9C3.8,78.9,3,78,1.9,78L1.9,78z"/>
	</g>
</g>
</svg>
