<?xml version="1.0" encoding="iso-8859-1"?>
<!-- Generator: Adobe Illustrator 19.0.0, SVG Export Plug-In . SVG Version: 6.00 Build 0)  -->
<svg version="1.1" id="Capa_1" xmlns="http://www.w3.org/2000/svg" xmlns:xlink="http://www.w3.org/1999/xlink" x="0px" y="0px"
	 viewBox="0 0 512 512" style="enable-background:new 0 0 512 512;fill:#6E7195;" xml:space="preserve">
<g>
	<g>
		<path d="M256,0C115.03,0,0,115.049,0,256c0,140.971,115.049,256,256,256c140.97,0,256-115.049,256-256
			C512,115.029,396.951,0,256,0z M256,482C131.383,482,30,380.617,30,256S131.383,30,256,30s226,101.383,226,226
			S380.617,482,256,482z"/>
	</g>
</g>
<g>
	<g>
		<path d="M256,60C148.336,60,60,148.368,60,256c0,107.663,88.368,196,196,196c107.664,0,196-88.368,196-196
			C452,148.337,363.632,60,256,60z M256,422c-91.533,0-166-74.467-166-166S164.467,90,256,90s166,74.467,166,166
			S347.533,422,256,422z"/>
	</g>
</g>
<g>
	<g>
		<path d="M356.606,200.393c-5.857-5.858-15.355-5.858-21.212,0L226,309.787l-49.394-49.394c-5.857-5.858-15.355-5.858-21.213,0
			c-5.858,5.858-5.858,15.355,0,21.213l60,60c5.857,5.857,15.355,5.858,21.213,0l120-120
			C362.464,215.748,362.464,206.251,356.606,200.393z"/>
	</g>
</g>
<g>
</g>
<g>
</g>
<g>
</g>
<g>
</g>
<g>
</g>
<g>
</g>
<g>
</g>
<g>
</g>
<g>
</g>
<g>
</g>
<g>
</g>
<g>
</g>
<g>
</g>
<g>
</g>
<g>
</g>
</svg>
