<?xml version="1.0" encoding="iso-8859-1"?>
<!-- Generator: Adobe Illustrator 16.0.0, SVG Export Plug-In . SVG Version: 6.00 Build 0)  -->
<!DOCTYPE svg PUBLIC "-//W3C//DTD SVG 1.1//EN" "http://www.w3.org/Graphics/SVG/1.1/DTD/svg11.dtd">
<svg version="1.1" id="Capa_1" xmlns="http://www.w3.org/2000/svg" xmlns:xlink="http://www.w3.org/1999/xlink" x="0px" y="0px"
	 width="32px" height="32px" viewBox="0 0 32 32" style="enable-background:new 0 0 32 32;" xml:space="preserve">
<g>
	<g id="Bulb">
		<g>
			<path d="M16,0c-4.963,0-9,4.037-9,9c0,2.399,0.798,4.417,1.57,6.368C9.306,17.227,10,18.98,10,21
				c0,1.064,0.562,1.997,1.401,2.529C11.153,23.966,11,24.463,11,25c0,1.064,0.562,1.997,1.401,2.529C12.153,27.966,12,28.463,12,29
				c0,1.654,1.346,3,3,3h2c1.654,0,3-1.346,3-3c0-0.537-0.152-1.034-0.4-1.471C20.438,26.997,21,26.064,21,25
				c0-0.537-0.152-1.034-0.4-1.471C21.438,22.997,22,22.064,22,21c0-2.02,0.693-3.773,1.43-5.632C24.202,13.417,25,11.399,25,9
				C25,4.037,20.963,0,16,0z M17,30h-2c-0.552,0-1-0.448-1-1s0.448-1,1-1h2c0.552,0,1,0.448,1,1S17.552,30,17,30z M18,26h-4
				c-0.552,0-1-0.448-1-1s0.448-1,1-1h4c0.552,0,1,0.448,1,1S18.552,26,18,26z M13.16,10.771C13.968,11.44,14.953,12,16,12
				c1.052,0,2.041-0.564,2.852-1.238c-0.252,2.16-0.791,3.521-1.354,4.929c-0.663,1.653-1.342,3.372-1.47,6.31h-0.052
				c-0.119-3.501-0.846-5.233-1.557-6.894C13.899,13.893,13.404,12.713,13.16,10.771z M21.57,14.632C20.798,16.583,20,18.602,20,21
				c0,0.552-0.448,1-1,1h-0.975c0.123-2.549,0.709-4.021,1.328-5.564C20.125,14.509,21,12.326,21,8c0-0.033-0.016-0.061-0.02-0.093
				c-0.006-0.069-0.021-0.134-0.041-0.201c-0.02-0.061-0.041-0.116-0.069-0.172c-0.029-0.056-0.063-0.104-0.103-0.154
				c-0.045-0.054-0.093-0.102-0.146-0.146c-0.023-0.02-0.039-0.048-0.066-0.066c-0.025-0.018-0.056-0.02-0.082-0.034
				c-0.061-0.032-0.121-0.057-0.188-0.076c-0.066-0.021-0.131-0.034-0.196-0.04C20.059,7.015,20.031,7,20,7
				c-0.033,0-0.061,0.016-0.093,0.019c-0.07,0.007-0.136,0.02-0.203,0.041c-0.06,0.019-0.114,0.04-0.169,0.069
				c-0.057,0.03-0.105,0.065-0.156,0.106c-0.054,0.043-0.102,0.089-0.145,0.143c-0.021,0.025-0.049,0.04-0.066,0.067
				C18.611,8.279,17.105,10,16,10c-1.1,0-2.609-1.722-3.169-2.556c-0.018-0.026-0.046-0.041-0.065-0.065
				c-0.045-0.055-0.092-0.102-0.147-0.146c-0.05-0.04-0.099-0.074-0.154-0.104C12.41,7.1,12.354,7.078,12.294,7.06
				c-0.067-0.022-0.133-0.035-0.203-0.041C12.06,7.016,12.032,7,12,7c-0.031,0-0.057,0.015-0.088,0.018
				c-0.067,0.006-0.132,0.02-0.198,0.04s-0.127,0.044-0.187,0.077c-0.027,0.014-0.056,0.016-0.083,0.034
				c-0.027,0.018-0.041,0.046-0.064,0.065c-0.056,0.045-0.104,0.093-0.148,0.149c-0.039,0.048-0.072,0.096-0.1,0.149
				c-0.031,0.057-0.054,0.115-0.073,0.178c-0.02,0.064-0.034,0.128-0.039,0.194C11.016,7.938,11,7.966,11,8
				c0,4.205,0.804,6.08,1.581,7.894c0.661,1.542,1.283,3.024,1.396,6.106H13c-0.552,0-1-0.448-1-1c0-2.398-0.798-4.417-1.57-6.368
				C9.694,12.773,9,11.019,9,9c0-3.859,3.141-7,7-7c3.859,0,7,3.141,7,7C23,11.019,22.307,12.773,21.57,14.632z"/>
		</g>
	</g>
</g>
<g>
</g>
<g>
</g>
<g>
</g>
<g>
</g>
<g>
</g>
<g>
</g>
<g>
</g>
<g>
</g>
<g>
</g>
<g>
</g>
<g>
</g>
<g>
</g>
<g>
</g>
<g>
</g>
<g>
</g>
</svg>
