<?xml version="1.0" encoding="utf-8"?>
<!-- Generator: Adobe Illustrator 21.0.0, SVG Export Plug-In . SVG Version: 6.00 Build 0)  -->
<svg version="1.1" id="Слой_1" xmlns="http://www.w3.org/2000/svg" xmlns:xlink="http://www.w3.org/1999/xlink" x="0px" y="0px"
	 viewBox="0 0 43.4 43.4" style="enable-background:new 0 0 43.4 43.4;" xml:space="preserve">
<style type="text/css">
	.st0{fill:url(#SVGID_1_);}
	.st1{fill:url(#SVGID_2_);}
	.st2{fill:url(#SVGID_3_);}
</style>
<g>
	<g>
		<linearGradient id="SVGID_1_" gradientUnits="userSpaceOnUse" x1="9.094947e-13" y1="21.7106" x2="43.4209" y2="21.7106">
			<stop  offset="0" style="stop-color:#3BF4D6"/>
			<stop  offset="1" style="stop-color:#29B7F0"/>
		</linearGradient>
		<path class="st0" d="M38.3,30.1c6.9-6.9,6.9-18,0-24.9c-6.9-6.9-18-6.9-24.9,0C7.5,11,6.6,19.6,10.7,26.4c0,0,0.3,0.5-0.1,0.9
			c-2.2,2.2-9,9-9,9c-1.8,1.8-2.2,4.3-0.6,5.9l0.3,0.3c1.6,1.6,4.1,1.2,5.9-0.6c0,0,6.7-6.7,9-9c0.4-0.4,0.9-0.1,0.9-0.1
			C23.8,36.8,32.4,35.9,38.3,30.1z M16.6,26.8c-5.1-5.1-5.1-13.3,0-18.4c5.1-5.1,13.3-5.1,18.4,0c5.1,5.1,5.1,13.3,0,18.4
			C29.9,31.9,21.7,31.9,16.6,26.8z"/>
		<g>
			<linearGradient id="SVGID_2_" gradientUnits="userSpaceOnUse" x1="16.2352" y1="17.7009" x2="35.494" y2="17.7009">
				<stop  offset="0" style="stop-color:#3BF4D6"/>
				<stop  offset="1" style="stop-color:#29B7F0"/>
			</linearGradient>
			<path class="st1" d="M25.9,11.5c-5.3,0-9.6,5.3-9.6,6.2c0,0.8,4.3,6.2,9.6,6.2c5.3,0,9.6-5.3,9.6-6.2
				C35.5,16.8,31.2,11.5,25.9,11.5z M25.9,22.1c-2.4,0-4.4-2-4.4-4.4s2-4.4,4.4-4.4s4.4,2,4.4,4.4S28.3,22.1,25.9,22.1z"/>
			<linearGradient id="SVGID_3_" gradientUnits="userSpaceOnUse" x1="23.6274" y1="17.701" x2="28.1018" y2="17.701">
				<stop  offset="0" style="stop-color:#3BF4D6"/>
				<stop  offset="1" style="stop-color:#29B7F0"/>
			</linearGradient>
			<circle class="st2" cx="25.9" cy="17.7" r="2.2"/>
		</g>
	</g>
</g>
</svg>
