<?xml version="1.0" encoding="utf-8"?>
<!-- Generator: Adobe Illustrator 17.1.0, SVG Export Plug-In . SVG Version: 6.00 Build 0)  -->
<!DOCTYPE svg PUBLIC "-//W3C//DTD SVG 1.1//EN" "http://www.w3.org/Graphics/SVG/1.1/DTD/svg11.dtd">
<svg version="1.1" id="Layer_1" xmlns="http://www.w3.org/2000/svg" xmlns:xlink="http://www.w3.org/1999/xlink" x="0px" y="0px"
	 viewBox="0 0 348.8 222" enable-background="new 0 0 348.8 222" xml:space="preserve">
<g>
	<polygon fill="#219370" points="87.2,222 0,169.1 0,105.9 87.2,158.9 	"/>
</g>
<g>
	<polygon fill="#32BA94" points="261.6,222 348.8,169.1 348.8,105.9 261.6,158.9 	"/>
</g>
<g>
	<linearGradient id="SVGID_1_" gradientUnits="userSpaceOnUse" x1="87.1989" y1="163.9942" x2="261.5966" y2="163.9942">
		<stop  offset="0" style="stop-color:#2484C6"/>
		<stop  offset="1" style="stop-color:#2484C6;stop-opacity:0.3"/>
	</linearGradient>
	<polygon opacity="0.16" fill="url(#SVGID_1_)" points="87.2,222 87.2,158.9 174.4,105.9 261.6,158.9 261.6,222 174.4,169.1 	"/>
	
		<linearGradient id="SVGID_2_" gradientUnits="userSpaceOnUse" x1="4591.8799" y1="79.4611" x2="4940.6753" y2="79.4611" gradientTransform="matrix(-1 0 0 1 4940.6753 0)">
		<stop  offset="0" style="stop-color:#2484C6"/>
		<stop  offset="1" style="stop-color:#2484C6;stop-opacity:0.3"/>
	</linearGradient>
	<polygon opacity="0.16" fill="url(#SVGID_2_)" points="348.8,105.9 261.6,158.9 174.4,105.9 87.2,158.9 0,105.9 174.4,0 	"/>
	<g opacity="0.3">
		<polygon fill="#FFFFFF" points="261.6,222 348.8,169.1 348.8,105.9 261.6,158.9 		"/>
	</g>
	<g opacity="0.3">
		<polygon fill="#FFFFFF" points="87.2,222 0,169.1 0,105.9 87.2,158.9 		"/>
	</g>
</g>
</svg>
