<?xml version="1.0" encoding="utf-8"?>
<!-- Generator: Adobe Illustrator 21.0.0, SVG Export Plug-In . SVG Version: 6.00 Build 0)  -->
<svg version="1.1" id="Слой_1" xmlns="http://www.w3.org/2000/svg" xmlns:xlink="http://www.w3.org/1999/xlink" x="0px" y="0px"
	 viewBox="0 0 29.8 53" style="enable-background:new 0 0 29.8 53;" xml:space="preserve">
<style type="text/css">
	.st0{fill:url(#SVGID_1_);}
</style>
<g>
	<g id="Bulb">
		<g>
			<linearGradient id="SVGID_1_" gradientUnits="userSpaceOnUse" x1="0" y1="26.5" x2="29.8125" y2="26.5">
				<stop  offset="0" style="stop-color:#3BF4D6"/>
				<stop  offset="1" style="stop-color:#29B7F0"/>
			</linearGradient>
			<path class="st0" d="M14.9,0C6.7,0,0,6.7,0,14.9c0,4,1.3,7.3,2.6,10.5c1.2,3.1,2.4,6,2.4,9.3c0,1.8,0.9,3.3,2.3,4.2
				c-0.4,0.7-0.7,1.5-0.7,2.4c0,1.8,0.9,3.3,2.3,4.2c-0.4,0.7-0.7,1.5-0.7,2.4c0,2.7,2.2,5,5,5h3.3c2.7,0,5-2.2,5-5
				c0-0.9-0.3-1.7-0.7-2.4c1.4-0.9,2.3-2.4,2.3-4.2c0-0.9-0.3-1.7-0.7-2.4c1.4-0.9,2.3-2.4,2.3-4.2c0-3.3,1.1-6.2,2.4-9.3
				c1.3-3.2,2.6-6.6,2.6-10.5C29.8,6.7,23.1,0,14.9,0z M16.6,49.7h-3.3c-0.9,0-1.7-0.7-1.7-1.7s0.7-1.7,1.7-1.7h3.3
				c0.9,0,1.7,0.7,1.7,1.7S17.5,49.7,16.6,49.7z M18.2,43.1h-6.6c-0.9,0-1.7-0.7-1.7-1.7s0.7-1.7,1.7-1.7h6.6c0.9,0,1.7,0.7,1.7,1.7
				S19.1,43.1,18.2,43.1z M10.2,17.8c1.3,1.1,3,2,4.7,2c1.7,0,3.4-0.9,4.7-2.1c-0.4,3.6-1.3,5.8-2.2,8.2c-1.1,2.7-2.2,5.6-2.4,10.5
				h-0.1c-0.2-5.8-1.4-8.7-2.6-11.4C11.4,23,10.6,21.1,10.2,17.8z M24.1,24.2c-1.3,3.2-2.6,6.6-2.6,10.5c0,0.9-0.7,1.7-1.7,1.7h-1.6
				c0.2-4.2,1.2-6.7,2.2-9.2c1.3-3.2,2.7-6.8,2.7-14c0-0.1,0-0.1,0-0.2c0-0.1,0-0.2-0.1-0.3c0-0.1-0.1-0.2-0.1-0.3
				c0-0.1-0.1-0.2-0.2-0.3c-0.1-0.1-0.2-0.2-0.2-0.2c0,0-0.1-0.1-0.1-0.1c0,0-0.1,0-0.1-0.1c-0.1-0.1-0.2-0.1-0.3-0.1
				c-0.1,0-0.2-0.1-0.3-0.1c0,0-0.1,0-0.1,0c-0.1,0-0.1,0-0.2,0c-0.1,0-0.2,0-0.3,0.1c-0.1,0-0.2,0.1-0.3,0.1
				c-0.1,0-0.2,0.1-0.3,0.2c-0.1,0.1-0.2,0.1-0.2,0.2c0,0-0.1,0.1-0.1,0.1c-0.9,1.4-3.4,4.2-5.2,4.2c-1.8,0-4.3-2.9-5.2-4.2
				c0,0-0.1-0.1-0.1-0.1c-0.1-0.1-0.2-0.2-0.2-0.2c-0.1-0.1-0.2-0.1-0.3-0.2c-0.1,0-0.2-0.1-0.3-0.1c-0.1,0-0.2-0.1-0.3-0.1
				c-0.1,0-0.1,0-0.2,0c-0.1,0-0.1,0-0.1,0c-0.1,0-0.2,0-0.3,0.1c-0.1,0-0.2,0.1-0.3,0.1c0,0-0.1,0-0.1,0.1c0,0-0.1,0.1-0.1,0.1
				c-0.1,0.1-0.2,0.2-0.2,0.2c-0.1,0.1-0.1,0.2-0.2,0.2c-0.1,0.1-0.1,0.2-0.1,0.3c0,0.1-0.1,0.2-0.1,0.3c0,0.1,0,0.1,0,0.2
				c0,7,1.3,10.1,2.6,13.1c1.1,2.6,2.1,5,2.3,10.1H9.9c-0.9,0-1.7-0.7-1.7-1.7c0-4-1.3-7.3-2.6-10.5c-1.2-3.1-2.4-6-2.4-9.3
				c0-6.4,5.2-11.6,11.6-11.6s11.6,5.2,11.6,11.6C26.5,18.3,25.4,21.2,24.1,24.2z"/>
		</g>
	</g>
</g>
</svg>
