<svg id="Isolation_Mode" data-name="Isolation Mode" xmlns="http://www.w3.org/2000/svg" viewBox="0 0 385.82 120.99"><defs><style>.cls-1{fill:#231f20;opacity:0.8;}</style></defs><title>green_pattern1</title><path class="cls-1" d="M385.19,72.23a.8.8,0,0,0-.68.17l-5.77-6.34a.8.8,0,0,0,.22-.37.81.81,0,0,0-1.58-.36.67.67,0,0,0,0,.09L338.62,66a.8.8,0,0,0-1.45-.36l-18.32-11a.8.8,0,1,0-1.5-.53.79.79,0,0,0,0,.21l-28.43,4.06a.79.79,0,0,0-1.48-.17L258,46.79v0a.81.81,0,0,0-1.57-.36.79.79,0,0,0,0,.42l-21.15,8.89a.79.79,0,0,0-1.4,0l-26.17-11,0,0a.81.81,0,0,0-.61-1,.8.8,0,0,0-.91.48L171.94,34.3a.79.79,0,0,0-1.18-.83L147.11,1.38a.79.79,0,0,0,.24-.39.81.81,0,1,0-1.57-.36.78.78,0,0,0,0,.14L105.2,4.08a.8.8,0,0,0-1.57,0,.78.78,0,0,0,0,.39L70,18.17a.79.79,0,0,0-.52-.4A.81.81,0,0,0,68.59,19L39.73,42.68a.78.78,0,0,0-.36-.21.81.81,0,0,0-1,.61.79.79,0,0,0,0,.21l-36.82,6A.8.8,0,0,0,1,48.77a.81.81,0,1,0,.24,1.48L14.34,68a.79.79,0,0,0-.26.41.81.81,0,0,0,.61,1,.8.8,0,0,0,.77-.25L40.7,87.54a.8.8,0,1,0,1.48.57.79.79,0,0,0,0-.38L71.78,76.37a.79.79,0,0,0,1.45-.08l35.25,8.77a.79.79,0,0,0,1.35.66l28.94,22.48a.79.79,0,0,0-.1.23.81.81,0,1,0,1.57,0L155,104.08a.79.79,0,0,0,.56.5.8.8,0,0,0,.85-.35l28.14,14a.8.8,0,0,0,0,.09.81.81,0,1,0,1.57.36.78.78,0,0,0,0-.44l32.71-15.82a.8.8,0,0,0,1.31.06l28.73,17.34a.77.77,0,0,0-.07.14.81.81,0,1,0,1.57.36.79.79,0,0,0-.06-.51L272.46,107a.8.8,0,0,0,.47.32.81.81,0,0,0,1-.61.79.79,0,0,0,0-.37L306.3,94.27a.8.8,0,0,0,.53.42.8.8,0,0,0,.84-1.24l7.79-6.68,33.32-.08a.8.8,0,0,0,1.58.08.79.79,0,0,0,0-.37l34-13a.8.8,0,0,0,.52.41.81.81,0,0,0,.36-1.57ZM1.6,49.53l36.82-6a.78.78,0,0,0,.15.28L15.35,68a.79.79,0,0,0-.9,0L1.34,50.15a.78.78,0,0,0,.26-.41A.8.8,0,0,0,1.6,49.53ZM273.76,106a.78.78,0,0,0-.27-.23l7-18.58a.8.8,0,0,0,.61-.5L299.9,92Zm-88.29,11.7a.82.82,0,0,0-.25,0L177.57,82.5a.8.8,0,0,0,.52-.55l19.37,3.25a.79.79,0,0,0,.42.76l-12.38,31.79ZM155.92,103a.79.79,0,0,0-.41,0L142.33,73a.79.79,0,0,0,.33-.4l33.86,9.08a.79.79,0,0,0,.18.62l-20.46,20.91A.78.78,0,0,0,155.92,103ZM15.48,68.12,38.7,43.9A.8.8,0,0,0,39,44a.76.76,0,0,0,.27,0l3.64,18.47a.8.8,0,0,0-.57.58.79.79,0,0,0,0,.25l-26.71,5A.8.8,0,0,0,15.48,68.12ZM69.76,19.2,88.22,39a.79.79,0,0,0-.18.33l-19.24-3a.8.8,0,0,0-.61-.84h-.06l1.15-16.14A.79.79,0,0,0,69.76,19.2ZM146.35,1.58,142.12,28a.8.8,0,0,0-.83.61s0,0,0,0L122.86,26.8a.78.78,0,0,0-.18-.52l23.4-24.82A.78.78,0,0,0,146.35,1.58Zm24,32.53a.83.83,0,0,0,0,.2L156.78,38.6l-14-9.46a.89.89,0,0,0,.06-.13Zm147.1,20.6a.81.81,0,0,0,.37.29l-8.58,30.55-15.15-19.5Zm20.83,12a.8.8,0,0,0,.29-.4l26.62,6.15s0,0,0,0l-23,1Zm26.91,6a.79.79,0,0,0,.14.33L350.13,86a.78.78,0,0,0-.37-.22.79.79,0,0,0-.51.06l-7-12.15Zm.24.43a.78.78,0,0,0,.37.22.81.81,0,0,0,1-.61.71.71,0,0,0,0-.1l1.48,0L351.37,85.15Zm1.35-.61s0,0,0-.07l2.53-.55-.89.66Zm-36.24,1a.74.74,0,0,0-.63-.19l6.31-5.7Zm-1.3.41v0a.8.8,0,0,0,.08.54l-2.22,1.39Zm1.37-.33,6.7-6.94a.78.78,0,0,0,.33.18.79.79,0,0,0,.51-.06L342,73.55,330.82,74A.8.8,0,0,0,330.61,73.63ZM377,70.15l-7,1.52,2.76-2,4.26.42A.72.72,0,0,0,377,70.15Zm0-.3h0l-4-.4,4.62-3.4a.79.79,0,0,0,.4.24h.07l-.25,2.95A.8.8,0,0,0,377,69.85Zm-4.3-.42-1-.1,5.3-3.08Zm-.25.18-2.92,2.16-2.77.6a.82.82,0,0,0,0-.13l4.7-2.73Zm-5.8,2.52a.79.79,0,0,0-1.42.19l-26-6,32,3.16Zm-37,1.21-.45-.75,7.07-5.24Zm-.11.1-3.44,3.1-14.33,9,17.31-12.81Zm-74.08,26.4a.8.8,0,0,0-.32-.26l6.5-17.9L266,82.81l2.91,9.77Zm-77.33-18a.79.79,0,0,0-.13-.52l10.18-9.13L197.7,84.7a.79.79,0,0,0-.23.37Zm-35.39-9.44a.79.79,0,0,0,0-.31l24.78-9.89,9.39,18.91a.81.81,0,0,0-.29.37Zm-74-35.82a.66.66,0,0,0,0-.08L88,39.5a.79.79,0,0,0,.37.73l-2.28,5.09ZM171,35a.83.83,0,0,0,.16,0L171.64,48a.8.8,0,0,0-.51.27l-6.94-4.69,6.54-8.75A.81.81,0,0,0,171,35ZM188.28,72,204,57.93l-5.7,26.54a.81.81,0,0,0-.47.1Zm-27-23.35,6,3.48L164,54.76l-2.91-5.86A.81.81,0,0,0,161.31,48.7Zm.06-.12a.83.83,0,0,0,.07-.16s0,0,0,0l9.49.49a.79.79,0,0,0,.1.35l-3.64,2.86Zm9.8.8a.67.67,0,0,0,.6.23l.95,5.58-5.13-3Zm5.56,8.88-3.1,1.24-.68-4,3.84,2.24a.75.75,0,0,0-.07.16A.79.79,0,0,0,176.73,58.26Zm.07.19a.8.8,0,0,0,.52.4h.1l-.18,22L173.66,59.7Zm0-.85-3.92-2.29-1-5.73.16-.06L177,57.41A.79.79,0,0,0,176.84,57.6Zm-17-9.5-27.74-1.43s0-.05,0-.08l20.64-6.51L160,47.72a.79.79,0,0,0-.18.34S159.87,48.09,159.86,48.1Zm.61.92a.79.79,0,0,0,.44,0l2.93,5.9L142.48,71.69h0l17.76-22.77A.79.79,0,0,0,160.47,49ZM142.61,71.84l21.33-16.77L167.38,62l-24.76,9.88Zm21.49-16.9,3.38-2.65,5.27,3.07.71,4.21-5.89,2.35Zm9.4,4.83L177.08,81l0,0-9.39-18.9Zm4,21.19h-.1l.18-22.1a.79.79,0,0,0,.35-.1L188,72l-10.19,9.14A.8.8,0,0,0,177.49,81Zm.57-22.33a.79.79,0,0,0,.24-.39.73.73,0,0,0,0-.17l26.24-2.57-.45,2.1L188.16,71.88Zm26.23-.94,2.13-1.91a.83.83,0,0,0,.22.13l-7.7,26.67Zm1.86-2.56v0l-1.35.13.09-.4Zm0,.21a.8.8,0,0,0,.13.29l-1.92,1.72.4-1.88Zm2.25,2.53,14.5,24.93-.46,1.06-.88,0Zm57.27-4.78,7,16-8.27,5.71a.79.79,0,0,0-.42-.27h-.06l1.35-21.76Zm20.83,15.83a.79.79,0,0,0-.1.22.82.82,0,0,0,0,.31l-1.27.33.44-1.58Zm-6.33,16.76-5.69-13L284.88,70l-4.36,15.66A.8.8,0,0,0,280.16,85.67ZM264.53,75l8.23-5.69,1.45,3.31-9.64,2.5A.89.89,0,0,0,264.53,75Zm0,.77a.78.78,0,0,0,.09-.2.81.81,0,0,0,0-.31l9.65-2.5,5.7,13a.79.79,0,0,0-.22.19Zm20.54-5.8,1.37-.36a.78.78,0,0,0,.37.43l-.54,1.44-5.42,13.67Zm-.14-.12L274.4,72.55l-1.48-3.37,7.28-5,5.2,3.95ZM272.86,69,266,53.33,280.07,64ZM249.4,78.31l-7.85-2s0,0,0-.05l21.26-.75Zm-25,5.3h0l10.08-4.53-9.18,4.34Zm-1.22-.38a.8.8,0,0,0-.31.46.76.76,0,0,0,0,.15h-.21L223,83Zm-.59.78h.27a.81.81,0,0,0,.12.32l-.31.22a.79.79,0,0,0-.23-.2Zm.15.62,0,0,.31-.22.08.09Zm1.71-.82h0l0,0Zm1.44-.52,14.21-6.71a.79.79,0,0,0,.12.15L236.66,81Zm14.47-6.45a.77.77,0,0,0,.25.12.79.79,0,0,0,.51-.06l1.64,2.82-5.78,1.22Zm.91,0a.79.79,0,0,0,.27-.35l7.45,1.93-6.06,1.28Zm-1.19-1A.76.76,0,0,0,240,76a.79.79,0,0,0,0,.45l-15.69,7a.78.78,0,0,0-.33-.32l5.51-13.87ZM222.36,84l-.11.25-.06,0a.79.79,0,0,0-.46,0l-.12-.23Zm.4.74.44-.21.18.08-.19.84-.42-.19s0,0,0-.07A.79.79,0,0,0,222.76,84.76Zm1.66-.78.63-.3,11.41-2.42-5.33,6.46-6.75-3.56a.69.69,0,0,0,0-.1A.72.72,0,0,0,224.41,84Zm25.44-5.55,13.22-2.8a.79.79,0,0,0,.4.45l-2,5.37Zm13.77-2.29h0a.8.8,0,0,0,.33,0l1.91,6.42-4.2-1.09Zm.51,0a.81.81,0,0,0,.32-.23l15.24,10.19,0,.09-13.57-3.51Zm22.47-7.33,0,0-1-.75,2.4-8.62h0l-.82,9.17A.79.79,0,0,0,286.61,68.76ZM234.47,56.88a.8.8,0,0,0,.35,0l5.64,18.56a.8.8,0,0,0-.33.23l-10.57-6.56,4.86-12.25Zm-28.27-2,0,.07-1.25-.23.12-.53ZM171,48.45a.8.8,0,0,0-.08.18s0,0,0,0l-9.49-.49a.79.79,0,0,0-.27-.55l2.89-3.88ZM152.6,39.92,132.05,46.4a.78.78,0,0,0-.25-.32l9.92-16.59a.83.83,0,0,0,.16.08.8.8,0,0,0,.67-.16Zm-11-10.48L131.68,46a.75.75,0,0,0-.16-.08.78.78,0,0,0-.45,0l-4.88-10.51,15.19-6.3A.82.82,0,0,0,141.6,29.44Zm-19.71-1.86a.8.8,0,0,0,.45,0L126,35.35,109.8,42.06l11.83-14.6A.8.8,0,0,0,121.89,27.58ZM109.45,42.21l-2.41,1-.08-.1,0,0,13.6-14.54ZM106,44.31a.81.81,0,0,0,.17.08h.13l.11,1.57-5,6.15Zm.52.08a.8.8,0,0,0,.63-.61h0l.95.12-1.48,1.83Zm.63-.77a.77.77,0,0,0,0-.23l2.07-.86-1,1.23ZM89.4,40.1a.81.81,0,0,0,.18-.3l14.72,3.4a.8.8,0,0,0,.61.9.79.79,0,0,0,.67-.16l.07.08a.8.8,0,0,0,.24.25l-4.64,7.92a.76.76,0,0,0-.17-.08.79.79,0,0,0-.67.16Zm19,3.68,1.13-1.4,16.51-6.85L130.93,46a.8.8,0,0,0-.39.51h0Zm90.15,40.75L206.8,56a.8.8,0,0,0,.41,0l14.14,28L199,85.15A.79.79,0,0,0,198.55,84.53Zm38.18-3.33,6.11-1.29L254.3,99.65a.8.8,0,0,0-.19.19l-22.83-12ZM255,99.51a.79.79,0,0,0-.51.06L243,79.88l6.4-1.35,12.06,3.12L255,99.52Zm25.79-13.78,2.7-6.82-2.6,6.87Zm7.12-16a.77.77,0,0,0,.11-.23.78.78,0,0,0,0-.44l4.53-2.2,5.73,10.73Zm0-10.43-2.38,8.56-5-3.93,7-4.85A.78.78,0,0,0,287.85,59.3Zm-22-6.33-.14-.31a.79.79,0,0,0,.16-.14L280.2,63.89Zm-1.38-.8.09.07a.79.79,0,0,0,.12.22l-4.86,4.8-1-4.33Zm.33.43a.79.79,0,0,0,.32.16h.06L263.8,74.57h-.07l-3.9-17.1Zm-1.2,22a.79.79,0,0,0-.35.23l-12.57-8.3,9-8.94Zm-.45.39a.42.42,0,0,0-.08.31l-21.48.76a.79.79,0,0,0-.17-.39l9.12-9Zm-21.86.55,0,0,6.1-10.94,3,2Zm-.2-.11a.67.67,0,0,0-.12-.05.78.78,0,0,0-.35,0l-5.64-18.56a.78.78,0,0,0,.31-.22l11.92,7.87ZM229.43,69l-.26-.16,3.53-8.08Zm-.08.19L223.84,83.1h0a.8.8,0,0,0-.39,0l-.23-.54,5.9-13.51Zm-6.26,13.13-9.7-23L228.94,69Zm-.17.16L207.41,55.82a.72.72,0,0,0,.14-.13l5.53,3.43ZM206.3,54.68,205.08,54,207,45.23h0l-.07,9.16A.79.79,0,0,0,206.3,54.68Zm-1.46-.61-.13.61-14.14-2.56,6.13-2.83Zm-.17.79-.1.46L178.29,57.9a.85.85,0,0,0,0-.09l12-5.55Zm-26.48,2.78a.81.81,0,0,0-.51-.37.82.82,0,0,0-.31,0l-2-7.7L190,52.21Zm-1-.33-.1,0-4.93-7.89a.79.79,0,0,0,.3-.41l2.67.48Zm-4.71-8.46s0,0,0,0l2.37-.29.22.81Zm0-.24a.8.8,0,0,0-.59-.6.82.82,0,0,0-.15,0L171.24,35h0l3.55,13.36ZM164,43.69l-2.89,3.87a.81.81,0,0,0-.24-.11.8.8,0,0,0-.67.16L152.93,40l3.84-1.21Zm-11.2-3.82L142.69,29.31l13.86,9.36ZM141.3,29,126.1,35.3l-3.63-7.82a.8.8,0,0,0,.39-.51s0,0,0,0l18.42,1.84A.76.76,0,0,0,141.3,29Zm-19.83-1.68L106.84,43a.79.79,0,0,0-.39-.23h-.12l-.45-9.62,15.48-5.94A.7.7,0,0,0,121.48,27.32ZM106.14,42.72a.8.8,0,0,0-.36.17.8.8,0,0,0-1.45.18l-14.72-3.4a.78.78,0,0,0,0-.31l16.09-6.18Zm-17.55-2.4,0,0a.79.79,0,0,0,.67-.16l11,12.16-.09.1-13.93-7Zm12.88,12,5-6.11.38,5.38-5.14,1A.79.79,0,0,0,101.47,52.34ZM106.62,46l1.67-2.06,22.25,2.79a.68.68,0,0,0,0,.09L107,51.57Zm25.5.93s0,0,0,0l27.74,1.43a.79.79,0,0,0,.24.5L142.34,71.58a.8.8,0,0,0-.24-.11.79.79,0,0,0-.41,0l-10-24.05A.79.79,0,0,0,132.12,46.92Zm89.31,37.15.15.29a.8.8,0,0,0-.35.49.77.77,0,0,0,0,.12l-19.64.19Zm1.27,1.38.45.21-3.4,14.72L222,85.82A.79.79,0,0,0,222.69,85.45Zm-3,15.81,3.59-15.54,6.87,3.2-10.26,12.43A.86.86,0,0,0,219.67,101.26Zm3.63-15.73.2-.87a.8.8,0,0,0,.78-.33L231,87.87l-.74.9ZM231.16,88l20.17,10.63-20.9-9.74Zm35-5.1,13.44,3.48a.79.79,0,0,0,.06.4L269,92.49Zm13.57,4a.8.8,0,0,0,.33.27l-6.22,17.16-.53,1.41h0a.8.8,0,0,0-.33,0l-3.9-13.07Zm.46.32h.12L277.37,95Zm.82-1.28,6-15.83h0a.8.8,0,0,0,.62-.11l13.33,16.53-19.76-.16A.78.78,0,0,0,281,85.93Zm6.74-16.06h0l10.62,8.08,4.59,8.6-1.79,0Zm19,23.29-1.91-3.58,3.88-2.09-1.58,5.62A.78.78,0,0,0,306.73,93.16Zm-2-3.76-1.43-2.69,5.62,0-.13.46Zm4.4-2.64h.08a.78.78,0,0,0,.05.2l-.22.12Zm1-.87a.8.8,0,0,0-.52.1l-.18-.23,6.93-24.67Zm-.66.22,0,0-.1-.07,0-.07Zm-.12.15a.79.79,0,0,0-.11.23.7.7,0,0,0,0,.09h0l.1-.36Zm-.36.32-5.76,0-4.43-8.3,10.33,7.86Zm-5.9.12,1.49,2.79-.68.37-2.56-3.17Zm1.59,3,1.81,3.39L304,90ZM309,87.36l.39-.21a.79.79,0,0,0,.3.25l-2.2,5.32ZM292.37,66.69l-4.51,2.19a.81.81,0,0,0-.5-.35h-.06l.82-9.17a.78.78,0,0,0,.3,0ZM258.76,52.75l-1.24-5.42a.79.79,0,0,0,.31-.2L264.25,52Zm-52-7.57-1.86,8.67-8-4.67,9.39-4.33A.8.8,0,0,0,206.75,45.19ZM170.63,34.78l-6.54,8.76L157,38.75l13.43-4.24A.81.81,0,0,0,170.63,34.78Zm-98,40.43a.75.75,0,0,0-.17,0L68.2,37.06a.8.8,0,0,0,.48-.33L86,45.5,72.72,75.23Zm237.9,10.93a.79.79,0,0,0-.3-.2L318,55.07a.79.79,0,0,0,.45-.07L329,72.53Zm-1.39-.35,0,.14-10.57-8-5.94-11.12,1.28-.62ZM292.55,66.6l-3.78-7.08,5,6.47Zm-5.2-8.19a.8.8,0,0,0,.09.53l-7.06,4.88L265.95,52.39a.91.91,0,0,0,.06-.14Zm-22.87-6.46L259.32,48l5.27,3.54a.76.76,0,0,0-.1.22A.73.73,0,0,0,264.48,51.95Zm-7.4-4.57a.8.8,0,0,0,.28,0l1.23,5.4-5.05.68L257,47.32Zm1.55,5.57,1,4.45-9.16,9-3.06-2,6-10.77ZM247.27,64.32l-11.91-7.86a.83.83,0,0,0,.08-.17.76.76,0,0,0,0-.2l17.76-2.4Zm-13-7.53-5.23,12L213.26,59l-1.5-3.57,22.1.73A.79.79,0,0,0,234.26,56.79Zm-21.31,2-5.29-3.29a.82.82,0,0,0,.07-.15s0,0,0-.08l3.8.13Zm-5.22-3.67a.8.8,0,0,0-.61-.73H207l.07-9.16.16,0,4.23,10Zm-1.46-10.44-9.52,4.39-4.6-2.7,14.1-1.75Zm-9.75,4.5-6.25,2.88-15-2.71L175,48.5l16.77-2.08ZM175,48.31l-3.56-13.39a.8.8,0,0,0,.36-.25l19.75,11.59ZM121.29,27l-15.42,5.92L104.56,5a.83.83,0,0,0,.29-.11l16.67,21.28a.73.73,0,0,0-.22.77ZM104.24,5h.12L105.68,33l-16.15,6.2a.79.79,0,0,0-.3-.31L104.19,5ZM67.41,36.79,43.6,62.63a.81.81,0,0,0-.29-.13.84.84,0,0,0-.27,0L39.4,44a.77.77,0,0,0,.58-.87l27.29-6.6A.8.8,0,0,0,67.41,36.79Zm-23.67,26L67.54,36.94a.82.82,0,0,0,.29.13.89.89,0,0,0,.17,0l4.3,38.15a.8.8,0,0,0-.5.38L43.89,63.52l0-.05A.79.79,0,0,0,43.73,62.77ZM72.91,75.32,86.23,45.59l13.93,7a.63.63,0,0,0,.07.7L73,75.43A.73.73,0,0,0,72.91,75.32Zm28.78-22.24a.8.8,0,0,0,0-.25l5.12-1L109.1,84.1l-7.91-30.47A.8.8,0,0,0,101.69,53.08Zm7.77,31.29h-.13L107,51.74,130.58,47a.76.76,0,0,0,1,.52l10,24.05a.76.76,0,0,0-.39.91L110,84.78A.79.79,0,0,0,109.46,84.37Zm89.58,1,22.18-.22a.8.8,0,0,0,.61.71l-2.34,15.41a.79.79,0,0,0-.63.24L198.92,85.7a.79.79,0,0,0,.11-.25A.75.75,0,0,0,199,85.33Zm21,16.14L230.3,89,254,100.05a.56.56,0,0,0,0,.07.74.74,0,0,0,0,.13l-33.75,1.65A.8.8,0,0,0,220,101.48ZM255.5,100l13.41-7.26,3.89,13a.79.79,0,0,0-.42.42l-16.83-5.7h0A.79.79,0,0,0,255.5,100Zm25.67-13.42s0,0,0,0l19.9.17,2.62,3.25-3.6,1.94Zm22.66,3.54,2.61,3.23a.8.8,0,0,0-.17.27L300.39,92Zm3.52,3.08,2.38-5.76.08,0a.81.81,0,0,0,1-.6s0-.06,0-.08h4l-7.22,6.52A.81.81,0,0,0,307.35,93.19Zm3.44-6.61a.79.79,0,0,0-.08-.26l14.75-9.21L315,86.57Zm20-12.35,11.31-.5,7,12.21a.82.82,0,0,0-.18.17l-18.2-11.57a.78.78,0,0,0,.08-.18A.72.72,0,0,0,330.82,74.23Zm37.75-1.52,4.32.1L351,85.63Zm.17-.13,1-.76L377,70.26l0,.1-4,2.33Zm8.41-2.07a.78.78,0,0,0,1.35-.13l5.76,2.38a.24.24,0,0,0,0,.18l-10.78-.25Zm-50.68,6,2.7-1.69L315.43,86.57h-.14Zm57.83-3.8-5.76-2.38a.84.84,0,0,0,0-.08.81.81,0,0,0-.61-1h-.08l.25-2.95a.78.78,0,0,0,.52-.17l5.77,6.34A.8.8,0,0,0,384.3,72.68Zm-6.84-6.82-5.94,3.45-31.87-3.15,37.73-.53A.77.77,0,0,0,377.46,65.86Zm-40.33.62-8.05,6L318.61,54.93a.8.8,0,0,0,.18-.17l18.32,11a.78.78,0,0,0-.07.16A.8.8,0,0,0,337.13,66.48ZM317.39,54.54,294,65.91l-5.27-6.79a.77.77,0,0,0,.23-.38.79.79,0,0,0,0-.21l28.43-4.06Zm-51.33-2.43a.8.8,0,0,0-1.43-.64L258,47l0,0v0L286.4,58Zm-9.27-4.87-3.49,6.25L235.43,55.9l0,0L256.56,47A.8.8,0,0,0,256.8,47.24ZM233.86,56l-22.17-.73-4.26-10.12a.8.8,0,0,0,.29-.31l26.17,11,0,0S233.87,56,233.86,56ZM206.23,44.44l-14.35,1.78-20-11.73,34.34,9.82A.86.86,0,0,0,206.23,44.44ZM170.39,34l-27.52-5.11a.79.79,0,0,0-.58-.84L146.51,1.6a.81.81,0,0,0,.43-.09l23.66,32.1A.8.8,0,0,0,170.39,34ZM145.95,1.32l-23.4,24.82a.8.8,0,0,0-.91,0L105,4.82a.79.79,0,0,0,.24-.39.8.8,0,0,0,0-.14L145.77,1A.79.79,0,0,0,145.95,1.32ZM104,4.94l-15,33.85,0,0a.79.79,0,0,0-.66.15L69.88,19.09a.78.78,0,0,0,.19-.34.79.79,0,0,0,0-.39L103.72,4.64A.8.8,0,0,0,104,4.94ZM69.1,19.35h.06L68,35.49a.77.77,0,0,0-.79.9L39.93,43a.79.79,0,0,0-.06-.16L68.73,19.14A.8.8,0,0,0,69.1,19.35ZM15.66,68.56l26.71-5a.8.8,0,0,0,.58.56H43L41.37,87.14a.79.79,0,0,0-.57.26L15.56,69a.81.81,0,0,0,.1-.21A.8.8,0,0,0,15.66,68.56ZM41.57,87.15h-.05l1.63-23.07a.79.79,0,0,0,.67-.4L71.73,75.77l0,.05a.79.79,0,0,0,0,.38L42.1,87.57A.8.8,0,0,0,41.57,87.15Zm31.6-11.58,27.18-22.1a.78.78,0,0,0,.37.22.81.81,0,0,0,.29,0l8,30.72a.79.79,0,0,0-.45.45L73.28,76.09A.8.8,0,0,0,73.18,75.57ZM110,84.95l31.17-12.31a.8.8,0,0,0,.52.41h0l-2.35,34.77a.79.79,0,0,0-.52.23L110,85.56a.69.69,0,0,0,.09-.61Zm29.59,22.87h0L142,73.05l.19,0,13.18,30.08a.8.8,0,0,0-.38.51.78.78,0,0,0,0,.35l-14.75,4.36A.79.79,0,0,0,139.64,107.82Zm16.71-4.53,20.46-20.91a.71.71,0,0,0,.57.16L185,117.78a.8.8,0,0,0-.41.31l-28.14-14a.81.81,0,0,0,0-.09A.79.79,0,0,0,156.35,103.29ZM186,118.1a.8.8,0,0,0-.3-.26L198,86h0a.8.8,0,0,0,.75-.23l19.94,15.77a.81.81,0,0,0-.11.25.79.79,0,0,0,0,.44Zm34.25-16L254,100.43a.8.8,0,0,0,.53.61l-4.84,18.35a.8.8,0,0,0-.77.3l-28.73-17.34a.77.77,0,0,0,.07-.14A.72.72,0,0,0,220.22,102.08Zm29.95,17.63a.79.79,0,0,0-.38-.28l4.84-18.35a.79.79,0,0,0,.86-.47l16.83,5.7h0a.78.78,0,0,0,.06.51Zm50-27.64,6,1.69a.8.8,0,0,0,0,.33l-31.78,11.82Zm14.88-5.3h.13L312.6,89Zm14.42-12a.79.79,0,0,0,.36.21.81.81,0,0,0,.82-.3l18.2,11.57a.8.8,0,0,0-.08.18.66.66,0,0,0,0,.08l-33.09.07Zm43.74-1.93,11,.25a.82.82,0,0,0,0,.14L350.6,86.1Z"/></svg>