<?xml version="1.0" encoding="UTF-8"?>
<svg width="72px" height="66px" viewBox="0 0 72 66" version="1.1" xmlns="http://www.w3.org/2000/svg" xmlns:xlink="http://www.w3.org/1999/xlink">
    <!-- Generator: Sketch 49.1 (51147) - http://www.bohemiancoding.com/sketch -->
    <title>Page 1</title>
    <desc>Created with Sketch.</desc>
    <defs></defs>
    <g id="Page-1" stroke="none" stroke-width="1" fill="none" fill-rule="evenodd">
        <g id="Landing-page" transform="translate(-1225.000000, -5743.000000)" fill="#228E9B">
            <g id="partners" transform="translate(230.000000, 5574.000000)">
                <g id="hacken" transform="translate(810.000000, 169.000000)">
                    <polygon id="Page-1" points="252.398006 0.235364723 252.398006 14.4987629 248.270479 14.4987629 248.270479 0.235364723 244.168485 0.235364723 244.168485 14.4987629 239.999076 14.4987629 239.999076 0.273364815 235.897081 0.273364815 235.897081 14.4987629 231.732824 14.4987629 231.732824 0.273364815 227.630904 0.273364815 227.630904 14.4987629 214.462566 14.4987629 214.462566 0.273364815 210.360646 0.273364815 210.360646 18.6007572 252.398006 18.6007572 252.398006 22.6717691 206.17317 22.6717691 206.17317 0.235364723 202.071176 0.235364723 202.071176 26.7737633 252.398006 26.7737633 252.398006 31.0001351 248.235465 31.0001351 197.898034 31.0001351 197.898034 0.235364723 193.796115 0.235364723 193.796115 31.0001351 189.60192 31.0001351 189.60192 0.235364723 185.5 0.235364723 185.5 65.8670491 189.60192 65.8670491 189.60192 51.6034269 193.761026 51.6034269 193.761026 65.8670491 197.862946 65.8670491 197.862946 51.6034269 202.03228 51.6034269 202.03228 65.828825 206.1342 65.828825 206.1342 51.6034269 210.298756 51.6034269 210.298756 65.828825 214.400675 65.828825 214.400675 51.6034269 227.569014 51.6034269 227.569014 65.828825 231.670934 65.828825 231.670934 47.5015073 189.60192 47.5015073 189.60192 43.4304954 235.858409 43.4304954 235.858409 65.8670491 239.960404 65.8670491 239.960404 39.3284265 189.60192 39.3284265 189.60192 35.1021294 193.796115 35.1021294 244.133546 35.1021294 244.133546 65.8670491 248.235465 65.8670491 248.235465 35.1021294 252.398006 35.1021294 252.398006 65.8670491 256.5 65.8670491 256.5 0.235364723"></polygon>
                </g>
            </g>
        </g>
    </g>
</svg>