<?xml version="1.0" encoding="utf-8"?>
<!-- Generator: Adobe Illustrator 21.0.0, SVG Export Plug-In . SVG Version: 6.00 Build 0)  -->
<svg version="1.1" id="Слой_1" xmlns="http://www.w3.org/2000/svg" xmlns:xlink="http://www.w3.org/1999/xlink" x="0px" y="0px"
	 viewBox="0 0 40.9 40.9" style="enable-background:new 0 0 40.9 40.9;" xml:space="preserve">
<style type="text/css">
	.st0{fill:url(#SVGID_1_);}
	.st1{fill:url(#SVGID_2_);}
	.st2{fill:url(#SVGID_3_);}
	.st3{fill:url(#SVGID_4_);}
	.st4{fill:url(#SVGID_5_);}
	.st5{fill:url(#SVGID_6_);}
	.st6{fill:url(#SVGID_7_);}
</style>
<g>
	<g>
		<g>
			<linearGradient id="SVGID_1_" gradientUnits="userSpaceOnUse" x1="0" y1="33.5247" x2="40.9355" y2="33.5247">
				<stop  offset="0" style="stop-color:#3BF4D6"/>
				<stop  offset="1" style="stop-color:#29B7F0"/>
			</linearGradient>
			<path class="st0" d="M0,26.1v2.8c0,0.8,0.6,1.4,1.4,1.4h14.1l-0.3,1.4l-1.2,6.4h-3.4c-0.5,0-1,0.3-1.3,0.8c-0.5,0.9,0.2,2,1.3,2
				h19.4c1,0,1.7-1.1,1.3-2c-0.2-0.5-0.7-0.8-1.3-0.8h-3.4l-1.2-6.4l-0.3-1.4h14.1c0.8,0,1.4-0.6,1.4-1.4v-2.8H0z M22.6,28.9h-4.2
				v-1.4h4.2V28.9z"/>
		</g>
	</g>
	<g>
		<g>
			<linearGradient id="SVGID_2_" gradientUnits="userSpaceOnUse" x1="26.114" y1="9.881" x2="35.995" y2="9.881">
				<stop  offset="0" style="stop-color:#3BF4D6"/>
				<stop  offset="1" style="stop-color:#29B7F0"/>
			</linearGradient>
			<rect x="26.1" y="9.2" class="st1" width="9.9" height="1.4"/>
		</g>
	</g>
	<g>
		<g>
			<linearGradient id="SVGID_3_" gradientUnits="userSpaceOnUse" x1="26.114" y1="7.0578" x2="30.3487" y2="7.0578">
				<stop  offset="0" style="stop-color:#3BF4D6"/>
				<stop  offset="1" style="stop-color:#29B7F0"/>
			</linearGradient>
			<rect x="26.1" y="6.4" class="st2" width="4.2" height="1.4"/>
		</g>
	</g>
	<g>
		<g>
			<linearGradient id="SVGID_4_" gradientUnits="userSpaceOnUse" x1="26.114" y1="12.7041" x2="30.3487" y2="12.7041">
				<stop  offset="0" style="stop-color:#3BF4D6"/>
				<stop  offset="1" style="stop-color:#29B7F0"/>
			</linearGradient>
			<rect x="26.1" y="12" class="st3" width="4.2" height="1.4"/>
		</g>
	</g>
	<g>
		<g>
			<linearGradient id="SVGID_5_" gradientUnits="userSpaceOnUse" x1="0" y1="12.3512" x2="40.9355" y2="12.3512">
				<stop  offset="0" style="stop-color:#3BF4D6"/>
				<stop  offset="1" style="stop-color:#29B7F0"/>
			</linearGradient>
			<path class="st4" d="M39.5,0H1.4C0.6,0,0,0.6,0,1.4v23.3h40.9V1.4C40.9,0.6,40.3,0,39.5,0z M10.6,21.9c-4.3,0-7.8-3.5-7.8-7.8
				s3.5-7.8,7.8-7.8v7.8h7.8C18.4,18.4,14.9,21.9,10.6,21.9z M13.4,11.3V3.5c4.3,0,7.8,3.5,7.8,7.8H13.4z M38.1,21.9H24V2.8h14.1
				V21.9z"/>
		</g>
	</g>
	<g>
		<g>
			<linearGradient id="SVGID_6_" gradientUnits="userSpaceOnUse" x1="26.114" y1="18.3504" x2="30.3487" y2="18.3504">
				<stop  offset="0" style="stop-color:#3BF4D6"/>
				<stop  offset="1" style="stop-color:#29B7F0"/>
			</linearGradient>
			<rect x="26.1" y="17.6" class="st5" width="4.2" height="1.4"/>
		</g>
	</g>
	<g>
		<g>
			<linearGradient id="SVGID_7_" gradientUnits="userSpaceOnUse" x1="26.114" y1="15.5273" x2="35.995" y2="15.5273">
				<stop  offset="0" style="stop-color:#3BF4D6"/>
				<stop  offset="1" style="stop-color:#29B7F0"/>
			</linearGradient>
			<rect x="26.1" y="14.8" class="st6" width="9.9" height="1.4"/>
		</g>
	</g>
</g>
</svg>
