<?xml version="1.0" encoding="utf-8"?>
<!-- Generator: Adobe Illustrator 21.0.0, SVG Export Plug-In . SVG Version: 6.00 Build 0)  -->
<svg version="1.1" id="Layer_1" xmlns="http://www.w3.org/2000/svg" xmlns:xlink="http://www.w3.org/1999/xlink" x="0px" y="0px"
	 viewBox="0 0 28.7 24.7" style="enable-background:new 0 0 28.7 24.7;" xml:space="preserve">
<style type="text/css">
	.st0{fill:#C9CDFF;}
</style>
<g>
	<path class="st0" d="M9.6,14.5c0,3.2,0,6.3,0,9.5c0,0.7-0.3,0.9-0.9,0.6c-2.5-1.2-5-2.5-7.5-3.7C0,20.3,0,20.2,0,18.8
		c0-6,0-12,0-18.1C0,0.1,0.2,0,0.8,0.3c2.8,1.4,5.7,2.8,8.5,4.3c0.2,0,0.3,0.2,0.3,0.4C9.6,8.2,9.6,11.4,9.6,14.5z"/>
	<path class="st0" d="M19.6,19.4c-0.8-1.3-1.6-2.6-2.4-3.9c-1.2-2-2.5-4-3.7-6c-0.1-0.2-0.1-0.4,0-0.6C15.3,6,17,3.2,18.8,0.3
		c0.3-0.4,0.3-0.4,0.8-0.2c2.9,1.5,5.8,2.9,8.7,4.4c0.3,0.1,0.3,0.3,0.1,0.5c-2.5,4-4.9,8-7.4,12C20.6,17.8,20.2,18.6,19.6,19.4z"/>
	<path class="st0" d="M28.7,6.4c0,0.2,0,0.4,0,0.5c0,5.6,0,11.2,0,16.8c0,0.1,0,0.2,0,0.2c0,0.7-0.3,0.9-0.9,0.6
		c-2.6-1.3-5.1-2.6-7.7-3.8c-0.2-0.1-0.2-0.2-0.1-0.4c1-1.7,2.1-3.4,3.1-5c1.8-2.9,3.5-5.8,5.3-8.7C28.5,6.6,28.6,6.5,28.7,6.4z"/>
	<path class="st0" d="M10.4,6.1c2.9,4.7,5.8,9.4,8.7,14.2c-0.5-0.3-1-0.5-1.4-0.7c-2.4-1.2-4.7-2.4-7.1-3.5
		c-0.2-0.1-0.3-0.2-0.3-0.4c0-3.1,0-6.3,0-9.4C10.4,6.2,10.4,6.2,10.4,6.1z"/>
</g>
</svg>
