<?xml version="1.0" encoding="utf-8"?>
<!-- Generator: Adobe Illustrator 21.0.0, SVG Export Plug-In . SVG Version: 6.00 Build 0)  -->
<svg version="1.1" id="Layer_1" xmlns="http://www.w3.org/2000/svg" xmlns:xlink="http://www.w3.org/1999/xlink" x="0px" y="0px"
	 viewBox="0 0 156.7 310" style="enable-background:new 0 0 156.7 310;" xml:space="preserve">
<style type="text/css">
	.st0{fill:#8386A8;}
</style>
<g id="XMLID_834_">
	<path id="XMLID_835_" class="st0" d="M5,165.1h34V305c0,2.8,2.2,5,5,5h57.6c2.8,0,5-2.2,5-5V165.8h39.1c2.5,0,4.7-1.9,5-4.4
		l5.9-51.5c0.2-1.4-0.3-2.8-1.2-3.9s-2.3-1.7-3.7-1.7h-45V72c0-9.7,5.2-14.7,15.6-14.7c1.5,0,29.4,0,29.4,0c2.8,0,5-2.2,5-5V5
		c0-2.8-2.2-5-5-5h-40.5c-0.3,0-0.9,0-1.9,0c-7,0-31.5,1.4-50.8,19.2C37.1,38.9,40.1,62.5,40.8,66.6v37.8H5c-2.8,0-5,2.2-5,5v50.8
		C0,162.9,2.2,165.1,5,165.1z"/>
</g>
</svg>
