<?xml version="1.0" encoding="UTF-8"?>
<svg width="53px" height="43px" viewBox="0 0 53 43" version="1.1" xmlns="http://www.w3.org/2000/svg" xmlns:xlink="http://www.w3.org/1999/xlink">
    <!-- Generator: sketchtool 49.1 (51147) - http://www.bohemiancoding.com/sketch -->
    <title>06BBC6D9-E6E7-43AB-ABB5-5EF49B39E3FB</title>
    <desc>Created with sketchtool.</desc>
    <defs></defs>
    <g id="Page-1" stroke="none" stroke-width="1" fill="none" fill-rule="evenodd">
        <g id="Landing-page" transform="translate(-908.000000, -9809.000000)" fill="#c9cdff">
            <g id="social-icons" transform="translate(513.000000, 9804.000000)">
                <path d="M429.0755,33.3002378 C427.14695,33.3002378 425.526388,31.7503716 425.526388,29.8394025 C425.526388,27.9284334 427.14695,26.3274376 429.0755,26.3274376 C431.00405,26.3274376 432.568175,27.9284334 432.568175,29.8394025 C432.568175,31.7503716 431.00405,33.3002378 429.0755,33.3002378 M429.89465,40.01739 C428.098325,41.7957417 425.32805,42.6601516 421.4258,42.6601516 C421.417738,42.6601516 421.408063,42.6585538 421.398388,42.6585538 C421.390325,42.6585538 421.38065,42.6601516 421.370975,42.6601516 C417.468725,42.6601516 414.700063,41.7957417 412.90535,40.01739 C412.353875,39.4709423 412.353875,38.5873588 412.90535,38.0425089 C413.455213,37.497659 414.346925,37.497659 414.8984,38.0425089 C416.1368,39.2696195 418.254013,39.8671968 421.370975,39.8671968 C421.38065,39.8671968 421.390325,39.8687946 421.398388,39.8687946 C421.408063,39.8687946 421.417738,39.8671968 421.4258,39.8671968 C424.542763,39.8671968 426.661588,39.2696195 427.9016,38.0425089 C428.453075,37.4960612 429.344788,37.497659 429.89465,38.0425089 C430.444513,38.5889566 430.444513,39.4725401 429.89465,40.01739 M410.231825,29.8394025 C410.231825,27.9300312 411.849163,26.3274376 413.7761,26.3274376 C415.70465,26.3274376 417.268775,27.9300312 417.268775,29.8394025 C417.268775,31.7503716 415.70465,33.3002378 413.7761,33.3002378 C411.849163,33.3002378 410.231825,31.7503716 410.231825,29.8394025 M438.5957,7.79295482 C439.901825,7.79295482 440.964463,8.84590517 440.964463,10.1385256 C440.964463,11.4327438 439.901825,12.4856941 438.5957,12.4856941 C437.289575,12.4856941 436.226938,11.4327438 436.226938,10.1385256 C436.226938,8.84590517 437.289575,7.79295482 438.5957,7.79295482 M447.2,26.0382357 C447.2,22.6493014 444.418438,19.893096 440.998325,19.893096 C439.51805,19.893096 438.158713,20.4107833 437.091238,21.2719976 C433.309925,18.9168401 428.511125,17.4979935 423.36725,17.197607 L426.05045,8.79157996 L433.424413,10.5124108 C433.617913,13.1727482 435.862513,15.2786489 438.5957,15.2786489 C441.454663,15.2786489 443.7815,12.9730232 443.7815,10.1385256 C443.7815,7.30562574 441.454663,5 438.5957,5 C436.5962,5 434.857925,6.12804697 433.992013,7.77537901 L425.423188,5.77653092 C424.705625,5.60876189 423.98,6.01779875 423.757475,6.71443966 L420.42605,17.1480752 C414.883888,17.2822904 409.6739,18.7059304 405.615238,21.1984988 C404.562275,20.3820229 403.238413,19.893096 401.801675,19.893096 C398.381563,19.893096 395.6,22.6493014 395.6,26.0382357 C395.6,28.1329518 396.66425,29.9848023 398.284813,31.0936757 C398.217088,31.5810048 398.181613,32.0715294 398.181613,32.5684453 C398.181613,36.8042137 400.666475,40.7443891 405.17825,43.6619724 C409.502975,46.4597206 415.22735,48 421.295188,48 C427.363025,48 433.0874,46.4597206 437.412125,43.6619724 C441.9239,40.7443891 444.408763,36.8042137 444.408763,32.5684453 C444.408763,32.1162678 444.378125,31.667286 444.321688,31.2214997 C446.050288,30.1302021 447.2,28.2144397 447.2,26.0382357" id="Reddit"></path>
            </g>
        </g>
    </g>
</svg>