<?xml version="1.0" encoding="UTF-8"?>
<svg width="33px" height="42px" viewBox="0 0 33 42" version="1.1" xmlns="http://www.w3.org/2000/svg" xmlns:xlink="http://www.w3.org/1999/xlink">
    <!-- Generator: sketchtool 49.1 (51147) - http://www.bohemiancoding.com/sketch -->
    <title>88D6841C-5156-4EA4-AC43-A18A9331EA21</title>
    <desc>Created with sketchtool.</desc>
    <defs></defs>
    <g id="Page-1" stroke="none" stroke-width="1" fill="none" fill-rule="evenodd">
        <g id="Landing-page" transform="translate(-1029.000000, -743.000000)" fill="#8386A8">
            <g id="header-texts-and-objects" transform="translate(360.000000, 212.000000)">
                <g id="social-icons" transform="translate(486.000000, 531.000000)">
                    <g id="Group-36">
                        <path d="M207.673164,27.0702017 C207.521912,32.087036 198.723739,31.4635288 195.892119,31.5350723 L195.863329,22.5565696 C198.261061,22.4954179 205.020371,21.9162757 207.098568,24.9011163 C207.457437,25.4430878 207.666676,26.1053643 207.677219,26.9067309 C207.677219,26.9618873 207.677219,27.0170437 207.673164,27.0702017 M195.981735,9.94294034 L196.244906,9.94294034 C196.300865,9.94294034 196.361285,9.94294034 196.421299,9.94134161 C196.527135,9.93934319 196.637026,9.93694508 196.74935,9.93694508 C196.846671,9.93494666 196.943991,9.93494666 197.043339,9.93294824 C197.095243,9.93094982 197.147148,9.93094982 197.201079,9.93094982 C197.288262,9.92855172 197.377473,9.92855172 197.46871,9.92855172 C197.603337,9.9265533 197.738369,9.9265533 197.881511,9.9265533 C198.030736,9.9265533 198.184421,9.9265533 198.341756,9.92855172 L198.456107,9.93094982 C198.605332,9.93294824 198.752529,9.93694508 198.903781,9.94294034 C199.005562,9.94493876 199.107343,9.94933529 199.208719,9.95533055 C199.260623,9.95533055 199.3105,9.95932739 199.362404,9.96132581 C199.437016,9.96572233 199.511629,9.96971917 199.586646,9.9741157 C199.721273,9.98210938 199.853872,9.9940999 199.986877,10.0044917 C200.038781,10.0064901 200.09028,10.0124854 200.142184,10.0168819 C200.154755,10.0188803 200.168947,10.0208787 200.183545,10.0208787 C200.275189,10.0288724 200.366021,10.0392642 200.459692,10.0492563 C200.669336,10.0720383 200.876142,10.0984174 201.085787,10.13319 C201.137691,10.1395849 201.189595,10.1475786 201.241499,10.1579704 C201.386669,10.1803527 201.529811,10.2071315 201.67052,10.2375075 C201.720397,10.2455012 201.768246,10.255893 201.818123,10.2682832 C202.010736,10.3090509 202.201728,10.3562137 202.390692,10.4109704 C202.436108,10.4237603 202.483957,10.4381489 202.529373,10.4521378 C202.774296,10.5256797 203.010704,10.6092137 203.238596,10.7059372 C203.271847,10.7199262 203.301043,10.7323164 203.332267,10.7443069 C203.373222,10.7650905 203.417017,10.7834759 203.458378,10.8038598 C203.898347,11.0080984 204.29655,11.2614981 204.630278,11.5724523 C204.659474,11.5988314 204.684615,11.6236118 204.711378,11.649991 C204.954274,11.8874033 205.159458,12.1591885 205.323281,12.4677445 C205.339906,12.4985202 205.356532,12.5332927 205.372752,12.5680652 C205.393838,12.6068346 205.412491,12.6476024 205.431144,12.6887698 C205.449797,12.731536 205.466423,12.7743022 205.483048,12.8174681 C205.499674,12.8602343 205.514272,12.9034002 205.528465,12.9461664 C205.534953,12.960555 205.538602,12.976942 205.543063,12.9893322 C205.568204,13.0628741 205.590506,13.1404128 205.609565,13.2203496 C205.68215,13.504525 205.723511,13.8086846 205.732027,14.1420211 C205.802584,18.8542961 198.312965,18.3291113 195.903068,18.2899422 L195.873466,9.94134161 C195.906717,9.94294034 195.944024,9.94294034 195.981735,9.94294034 M209.905046,19.2651713 C212.466195,18.0057669 213.974257,15.7447541 213.561456,12.2207398 C213.115404,7.28544103 208.712465,5.6867048 203.029357,5.34737303 L203.072746,0.157075835 L198.895671,0.0795371278 L198.963796,5.08358155 C197.83569,5.04681062 196.742862,5.1575231 195.614756,5.11835406 L195.695451,0.0775387075 L191.518377,0 L191.474988,5.19029719 C190.533007,5.26343938 189.554126,5.18789909 188.763803,5.22506971 L183.004055,5.21867476 L183,9.63438425 L186.048968,9.67355329 C187.631236,9.60161016 188.193667,10.5664475 188.419937,11.4561442 L188.450755,19.173244 L188.477519,30.042652 C188.440212,30.5254703 188.025384,31.4167658 186.897278,31.3775968 L183.84831,31.3392271 L183.014193,36.2717281 L188.473464,36.3516649 C189.601975,36.3880361 190.54355,36.3148939 191.522432,36.3904342 L191.515944,41.7302133 L195.693423,41.807752 L195.736812,36.6174548 C196.828018,36.5067423 197.958151,36.5435132 199.086257,36.5826823 L199.042869,41.7729795 L203.259276,42 L203.265764,36.660221 C209.936269,36.660221 215.349313,34.4811435 215.919854,27.8779631 C216.48999,22.535786 213.969796,20.1604636 209.905046,19.2651713" id="Fill-1"></path>
                    </g>
                </g>
            </g>
        </g>
    </g>
</svg>