<?xml version="1.0" encoding="utf-8"?>
<!-- Generator: Adobe Illustrator 21.0.0, SVG Export Plug-In . SVG Version: 6.00 Build 0)  -->
<svg version="1.1" id="Layer_1" xmlns="http://www.w3.org/2000/svg" xmlns:xlink="http://www.w3.org/1999/xlink" x="0px" y="0px"
	 viewBox="0 0 300 261.2" style="enable-background:new 0 0 300 261.2;" xml:space="preserve">
<style type="text/css">
	.st0{fill:#8386A8;}
</style>
<g id="XMLID_496_">
	<path id="XMLID_497_" class="st0" d="M5.3,125.2L74.4,151l26.8,86c1.7,5.5,8.5,7.5,12.9,3.9l38.5-31.4c4-3.3,9.8-3.5,14-0.4
		l69.5,50.5c4.8,3.5,11.6,0.9,12.8-4.9L299.8,9.8c1.3-6.3-4.9-11.6-10.9-9.3L5.2,110C-1.8,112.7-1.7,122.6,5.3,125.2z M96.9,137.3
		L232,54.1c2.4-1.5,4.9,1.8,2.8,3.7L123.3,161.5c-3.9,3.6-6.4,8.5-7.2,13.8l-3.8,28.1c-0.5,3.8-5.8,4.1-6.8,0.5l-14.6-51.3
		C89.3,146.8,91.7,140.5,96.9,137.3z"/>
</g>
</svg>
