<?xml version="1.0" encoding="UTF-8"?>
<svg width="45px" height="42px" viewBox="0 0 45 42" version="1.1" xmlns="http://www.w3.org/2000/svg" xmlns:xlink="http://www.w3.org/1999/xlink">
    <!-- Generator: sketchtool 49.1 (51147) - http://www.bohemiancoding.com/sketch -->
    <title>B584C567-A029-4704-A7EC-87BD039DCC05</title>
    <desc>Created with sketchtool.</desc>
    <defs></defs>
    <g id="Page-1" stroke="none" stroke-width="1" fill="none" fill-rule="evenodd">
        <g id="Landing-page" transform="translate(-1194.000000, -9808.000000)" fill="#8386A8">
            <g id="social-icons" transform="translate(513.000000, 9804.000000)">
                <path d="M726,46 L715.967082,46 L715.967082,31.1358417 C715.967082,27.2451685 714.397687,24.589114 710.946619,24.589114 C708.30694,24.589114 706.838968,26.381477 706.155694,28.1088601 C705.899466,28.7288769 705.939502,29.5925684 705.939502,30.4562599 L705.939502,46 L696,46 C696,46 696.128114,19.669592 696,17.2761647 L705.939502,17.2761647 L705.939502,21.7841471 C706.52669,19.8130893 709.702847,17 714.771352,17 C721.059609,17 726,21.1316404 726,30.0284754 L726,46 L726,46 Z M686.472664,14 L686.407058,14 C683.12674,14 681,11.7967943 681,9.00407498 C681,6.15702255 683.189612,4 686.535537,4 C689.878728,4 691.934394,6.15158924 692,8.99592502 C692,11.7886444 689.878728,14 686.472664,14 L686.472664,14 L686.472664,14 Z M682,17 L691,17 L691,46 L682,46 L682,17 L682,17 Z" id="LinkedIn"></path>
            </g>
        </g>
    </g>
</svg>