<?xml version="1.0" encoding="utf-8"?>
<!-- Generator: Adobe Illustrator 21.0.0, SVG Export Plug-In . SVG Version: 6.00 Build 0)  -->
<svg version="1.1" id="Layer_1" xmlns="http://www.w3.org/2000/svg" xmlns:xlink="http://www.w3.org/1999/xlink" x="0px" y="0px"
	 viewBox="0 0 512 355.1" style="enable-background:new 0 0 512 355.1;" xml:space="preserve">
<style type="text/css">
	.st0{fill:#B9BDEB;}
</style>
<g>
	<g>
		<path class="st0" d="M491.3,156.9H20.7C9.3,156.9,0,166.1,0,177.6s9.3,20.7,20.7,20.7h470.6c11.4,0,20.7-9.3,20.7-20.7
			C512,166.1,502.7,156.9,491.3,156.9z"/>
	</g>
</g>
<g>
	<g>
		<path class="st0" d="M491.3,0H20.7C9.3,0,0,9.3,0,20.7s9.3,20.7,20.7,20.7h470.6c11.4,0,20.7-9.3,20.7-20.7S502.7,0,491.3,0z"/>
	</g>
</g>
<g>
	<g>
		<path class="st0" d="M491.3,313.8H20.7C9.3,313.8,0,323,0,334.4s9.3,20.7,20.7,20.7h470.6c11.4,0,20.7-9.3,20.7-20.7
			S502.7,313.8,491.3,313.8z"/>
	</g>
</g>
</svg>
