<svg id="Layer_1" data-name="Layer 1" xmlns="http://www.w3.org/2000/svg" viewBox="0 0 636.54 268.15"><defs><style>.cls-1{fill:none;stroke:#4d5a68;stroke-miterlimit:10;}</style></defs><title>pattern1</title><polygon class="cls-1" points="635.76 1.07 635.76 134.07 556.76 67.57 635.76 1.07"/><polyline class="cls-1" points="635.76 134.07 605.7 67.57 635.76 1.07"/><line class="cls-1" x1="556.76" y1="67.57" x2="605.7" y2="67.57"/><polygon class="cls-1" points="635.76 134.07 635.76 267.07 556.76 200.57 635.76 134.07"/><polyline class="cls-1" points="635.76 267.07 605.7 200.57 635.76 134.07"/><line class="cls-1" x1="556.76" y1="200.57" x2="605.7" y2="200.57"/><polygon class="cls-1" points="556.76 200.57 556.76 67.57 635.76 134.07 556.76 200.57"/><polyline class="cls-1" points="556.76 67.57 586.82 134.07 556.76 200.57"/><line class="cls-1" x1="635.76" y1="134.07" x2="586.82" y2="134.07"/><polygon class="cls-1" points="477.76 1.07 477.76 134.07 556.76 67.57 477.76 1.07"/><polyline class="cls-1" points="477.76 134.07 507.82 67.57 477.76 1.07"/><line class="cls-1" x1="556.76" y1="67.57" x2="507.82" y2="67.57"/><polygon class="cls-1" points="477.76 134.07 477.76 267.07 556.76 200.57 477.76 134.07"/><polyline class="cls-1" points="477.76 267.07 507.82 200.57 477.76 134.07"/><line class="cls-1" x1="556.76" y1="200.57" x2="507.82" y2="200.57"/><polygon class="cls-1" points="556.76 200.57 556.76 67.57 477.76 134.07 556.76 200.57"/><polyline class="cls-1" points="556.76 67.57 526.7 134.07 556.76 200.57"/><line class="cls-1" x1="477.76" y1="134.07" x2="526.7" y2="134.07"/><polygon class="cls-1" points="476.75 1.07 476.75 134.07 397.75 67.57 476.75 1.07"/><polyline class="cls-1" points="476.75 134.07 446.68 67.57 476.75 1.07"/><line class="cls-1" x1="397.74" y1="67.57" x2="446.68" y2="67.57"/><polygon class="cls-1" points="476.75 134.07 476.75 267.07 397.75 200.57 476.75 134.07"/><polyline class="cls-1" points="476.75 267.07 446.68 200.57 476.75 134.07"/><line class="cls-1" x1="397.74" y1="200.57" x2="446.68" y2="200.57"/><polygon class="cls-1" points="397.75 200.57 397.75 67.57 476.75 134.07 397.75 200.57"/><polyline class="cls-1" points="397.75 67.57 427.81 134.07 397.75 200.57"/><line class="cls-1" x1="476.74" y1="134.07" x2="427.81" y2="134.07"/><polygon class="cls-1" points="318.75 134.07 318.75 267.07 397.75 200.57 318.75 134.07"/><polyline class="cls-1" points="318.75 267.07 348.81 200.57 318.75 134.07"/><line class="cls-1" x1="397.74" y1="200.57" x2="348.81" y2="200.57"/><polygon class="cls-1" points="397.75 200.57 397.75 67.57 318.75 134.07 397.75 200.57"/><polyline class="cls-1" points="397.75 67.57 367.68 134.07 397.75 200.57"/><line class="cls-1" x1="318.74" y1="134.07" x2="367.68" y2="134.07"/><polygon class="cls-1" points="317.79 134.07 317.79 267.07 238.79 200.57 317.79 134.07"/><polyline class="cls-1" points="317.79 267.07 287.73 200.57 317.79 134.07"/><line class="cls-1" x1="238.79" y1="200.57" x2="287.73" y2="200.57"/><polygon class="cls-1" points="238.79 200.57 238.79 67.57 317.79 134.07 238.79 200.57"/><polyline class="cls-1" points="238.79 67.57 268.85 134.07 238.79 200.57"/><line class="cls-1" x1="317.79" y1="134.07" x2="268.85" y2="134.07"/><polygon class="cls-1" points="159.79 1.07 159.79 134.07 238.79 67.57 159.79 1.07"/><polyline class="cls-1" points="159.79 134.07 189.85 67.57 159.79 1.07"/><line class="cls-1" x1="238.79" y1="67.57" x2="189.85" y2="67.57"/><polygon class="cls-1" points="238.79 200.57 238.79 67.57 159.79 134.07 238.79 200.57"/><polyline class="cls-1" points="238.79 67.57 208.73 134.07 238.79 200.57"/><line class="cls-1" x1="159.79" y1="134.07" x2="208.73" y2="134.07"/><polygon class="cls-1" points="158.78 1.07 158.78 134.07 79.78 67.57 158.78 1.07"/><polyline class="cls-1" points="158.78 134.07 128.71 67.57 158.78 1.07"/><line class="cls-1" x1="79.78" y1="67.57" x2="128.71" y2="67.57"/><polygon class="cls-1" points="79.78 200.57 79.78 67.57 158.78 134.07 79.78 200.57"/><polyline class="cls-1" points="79.78 67.57 109.84 134.07 79.78 200.57"/><line class="cls-1" x1="158.78" y1="134.07" x2="109.84" y2="134.07"/><polygon class="cls-1" points="79.78 200.57 79.78 67.57 0.78 134.07 79.78 200.57"/><polyline class="cls-1" points="79.78 67.57 49.71 134.07 79.78 200.57"/><line class="cls-1" x1="0.78" y1="134.07" x2="49.71" y2="134.07"/></svg>