<?xml version="1.0" encoding="utf-8"?>
<!-- Generator: Adobe Illustrator 21.0.0, SVG Export Plug-In . SVG Version: 6.00 Build 0)  -->
<svg version="1.1" id="Layer_1" xmlns="http://www.w3.org/2000/svg" xmlns:xlink="http://www.w3.org/1999/xlink" x="0px" y="0px"
	 viewBox="254.2 -753.4 659.5 658.3" style="enable-background:new 254.2 -753.4 659.5 658.3;" xml:space="preserve">
<style type="text/css">
	.st0{fill:#6E7195;}
	.st1{fill:#747490;}
	.st2{fill:none;stroke:#6E7195;stroke-width:33.8985;stroke-miterlimit:10;}
</style>
<rect x="353.5" y="-288.2" class="st0" width="151.7" height="30"/>
<path class="st0" d="M505.2-321.7c0-10.6,4.7-20.1,12.2-26.5H353.5v30h151.7V-321.7z"/>
<g>
	<path class="st0" d="M590.8-463.7c1.7-1.7,3.5-3.2,5.5-4.5H353.5v30h211.8L590.8-463.7z"/>
</g>
<path class="st0" d="M687.2-503.7h64.5c2,0,3.9,0.2,5.7,0.5v-25h-404v30h315C673.9-501.7,680.3-503.7,687.2-503.7z"/>
<g>
	<g>
		<path class="st0" d="M545.2-160.7c-6.6-6.6-10.3-15.4-10.3-24.7c0-0.9,0-1.8,0.1-2.7H308.8c-13.5,0-24.5-11-24.5-24.5v-486.2
			c0-13.5,11-24.5,24.5-24.5h360.5l12.3,12.2V-587l125.4-0.2l12.6,12.4v101.1c1.3-0.1,2.6-0.2,3.9-0.2c9.3,0,18.1,3.6,24.8,10.3
			l1.3,1.3v-125h0L681.6-753.4H308.8c-30.1,0-54.5,24.4-54.5,54.5v486.2c0,30.1,24.4,54.5,54.5,54.5h239L545.2-160.7z M711.6-681.6
			l3.1,3l62,61.3l-65.1,0.1V-681.6z"/>
	</g>
</g>
<g>
	<g>
		<path class="st1" d="M751.7-95.1h-64.5c-8.3,0-15-6.7-15-15v-39c-6.3-2.1-12.5-4.7-18.5-7.7l-27.6,27.6c-5.9,5.9-15.4,5.9-21.2,0
			l-45.6-45.6c-2.8-2.8-4.4-6.6-4.4-10.6c0-4,1.6-7.8,4.4-10.6l27.6-27.6c-3-6-5.5-12.2-7.7-18.5h-39c-8.3,0-15-6.7-15-15v-64.5
			c0-8.3,6.7-15,15-15h39c2.1-6.3,4.7-12.5,7.7-18.5l-27.6-27.6c-2.8-2.8-4.4-6.6-4.4-10.6c0-4,1.6-7.8,4.4-10.6l45.6-45.6
			c5.9-5.9,15.4-5.9,21.2,0l27.6,27.6c6-3,12.2-5.5,18.5-7.7v-39c0-8.3,6.7-15,15-15h64.5c8.3,0,15,6.7,15,15v39
			c6.3,2.1,12.5,4.7,18.5,7.7l27.6-27.6c2.8-2.8,6.6-4.4,10.6-4.4s7.8,1.6,10.6,4.4l45.6,45.6c2.8,2.8,4.4,6.6,4.4,10.6
			c0,4-1.6,7.8-4.4,10.6l-27.6,27.6c3,6,5.5,12.2,7.7,18.5h39c8.3,0,15,6.7,15,15v64.5c0,8.3-6.7,15-15,15h-39
			c-2.1,6.3-4.7,12.5-7.7,18.5l27.6,27.6c2.8,2.8,4.4,6.6,4.4,10.6c0,4-1.6,7.8-4.4,10.6l-45.6,45.6c-2.8,2.8-6.6,4.4-10.6,4.4
			s-7.8-1.6-10.6-4.4l-27.6-27.6c-6,3-12.2,5.5-18.5,7.7v39C766.7-101.9,760-95.1,751.7-95.1z M702.2-125.1h34.5v-35.2
			c0-6.9,4.7-12.9,11.4-14.6c11.3-2.8,22.1-7.3,32.1-13.3c5.9-3.6,13.5-2.6,18.3,2.2l24.9,24.9l24.4-24.4l-24.9-24.9
			c-4.9-4.9-5.8-12.4-2.2-18.3c6-10,10.5-20.8,13.3-32.1c1.7-6.7,7.7-11.4,14.6-11.4h35.2v-34.5h-35.2c-6.9,0-12.9-4.7-14.6-11.4
			c-2.8-11.3-7.3-22.1-13.3-32.1c-3.6-5.9-2.6-13.5,2.2-18.3l24.9-24.9l-24.4-24.4l-24.9,24.9c-4.9,4.9-12.4,5.8-18.3,2.2
			c-10-6-20.8-10.5-32.1-13.3c-6.7-1.7-11.4-7.7-11.4-14.6v-35.2h-34.5v35.2c0,6.9-4.7,12.9-11.4,14.6c-11.3,2.8-22.1,7.3-32.1,13.3
			c-5.9,3.6-13.5,2.6-18.3-2.2l-24.9-24.9l-24.4,24.4l24.9,24.9c4.9,4.9,5.8,12.4,2.2,18.3c-6,10-10.5,20.8-13.3,32.1
			c-1.7,6.7-7.7,11.4-14.6,11.4h-35.2v34.5h35.2c6.9,0,12.9,4.7,14.6,11.4c2.8,11.3,7.3,22.1,13.3,32.1c3.5,5.9,2.6,13.5-2.2,18.3
			l-24.9,24.9l24.4,24.4l24.9-24.9c4.9-4.9,12.4-5.8,18.3-2.2c10,6,20.8,10.5,32.1,13.3c6.7,1.7,11.4,7.7,11.4,14.6V-125.1z"/>
	</g>
</g>
<g>
	<path class="st0" d="M534.9-393.4c0-5.2,1.1-10.2,3.3-14.8H353.5v30h184.9C536.1-382.9,534.9-388,534.9-393.4z"/>
</g>
<polyline class="st2" points="667.4,-285.4 700.1,-252.2 771.6,-324.2 "/>
</svg>
