<?xml version="1.0" encoding="utf-8"?>
<!-- Generator: Adobe Illustrator 21.0.0, SVG Export Plug-In . SVG Version: 6.00 Build 0)  -->
<svg version="1.1" id="Capa_1" xmlns="http://www.w3.org/2000/svg" xmlns:xlink="http://www.w3.org/1999/xlink" x="0px" y="0px"
	 viewBox="0 0 410 330" style="enable-background:new 0 0 410 330;" xml:space="preserve">
<style type="text/css">
	.st0{fill:#6E7195;}
</style>
<g>
	<path class="st0" d="M395,0h-20h-60c-8.3,0-15,6.7-15,15v270c0,4,1.6,7.8,4.4,10.6l30,30c2.9,2.9,6.8,4.4,10.6,4.4
		s7.7-1.5,10.6-4.4l30-30c2.8-2.8,4.4-6.6,4.4-10.6V142.3c1.6,0.6,3.2,0.9,5,0.9c8.3,0,15-6.7,15-15V15C410,6.7,403.3,0,395,0z
		 M360,278.8l-15,15l-15-15V30h30V278.8z"/>
	<path class="st0" d="M157.6,4.4C154.8,1.6,151,0,147,0H15C6.7,0,0,6.7,0,15v300c0,8.3,6.7,15,15,15h240c8.3,0,15-6.7,15-15V123
		c0-4-1.6-7.8-4.4-10.6L157.6,4.4z M162,51.2l56.8,56.8H162V51.2z M30,300V30h102v93c0,8.3,6.7,15,15,15h93v162H30z"/>
	<path class="st0" d="M185,240H85c-8.3,0-15,6.7-15,15c0,8.3,6.7,15,15,15h100c8.3,0,15-6.7,15-15C200,246.7,193.3,240,185,240z"/>
	<path class="st0" d="M185,180H85c-8.3,0-15,6.7-15,15c0,8.3,6.7,15,15,15h100c8.3,0,15-6.7,15-15C200,186.7,193.3,180,185,180z"/>
</g>
</svg>
