<?xml version="1.0" encoding="utf-8"?>
<!-- Generator: Adobe Illustrator 21.0.0, SVG Export Plug-In . SVG Version: 6.00 Build 0)  -->
<svg version="1.1" id="Layer_1" xmlns="http://www.w3.org/2000/svg" xmlns:xlink="http://www.w3.org/1999/xlink" x="0px" y="0px"
	 viewBox="0 0 512 379.7" style="enable-background:new 0 0 512 379.7;" xml:space="preserve">
<style type="text/css">
	.st0{fill:#6E7195;}
</style>
<title>platform_li7</title>
<path class="st0" d="M486.4,127.6H402v-102C402,11.4,390.5,0,376.4,0H25.6C11.5,0,0,11.5,0,25.6v200.9c0,14.1,11.5,25.6,25.6,25.6
	H110v102c0,14.1,11.5,25.6,25.6,25.6h350.8c14.1,0,25.6-11.5,25.6-25.6V153.2C512,139.1,500.5,127.6,486.4,127.6z M25.6,231.8
	c-2.9,0-5.2-2.3-5.2-5.2v-201c0-2.9,2.3-5.2,5.2-5.2h350.8c2.9,0,5.2,2.3,5.2,5.2v200.9c0,2.9-2.3,5.2-5.2,5.2L25.6,231.8
	L25.6,231.8z M491.6,354.1c0,2.9-2.3,5.2-5.2,5.2H135.6c-2.9,0-5.2-2.3-5.2-5.2v-13h361.2L491.6,354.1L491.6,354.1z M491.6,320.7
	H130.4v-31.1h361.2V320.7L491.6,320.7z M491.6,269.2H130.4v-17.1h245.9c14.1,0,25.6-11.5,25.6-25.6V148h84.4c2.9,0,5.2,2.3,5.2,5.2
	L491.6,269.2z"/>
<path class="st0" d="M322.7,41c-10.5,0-20.5,4.4-27.5,12.2C281.5,38,258,36.8,242.8,50.6s-16.4,37.2-2.6,52.4
	c13.8,15.2,37.2,16.4,52.4,2.6c0.9-0.8,1.8-1.7,2.6-2.6c13.7,15.2,37.2,16.4,52.4,2.6s16.4-37.2,2.6-52.4
	C343.2,45.5,333.2,41,322.7,41L322.7,41z M267.7,94.8c-9.2,0-16.7-7.5-16.7-16.7s7.5-16.7,16.7-16.7s16.7,7.5,16.7,16.7
	C284.4,87.4,276.9,94.8,267.7,94.8L267.7,94.8z M322.7,94.8c-9.2,0-16.7-7.5-16.7-16.7s7.5-16.7,16.7-16.7s16.7,7.5,16.7,16.7
	C339.4,87.3,331.9,94.8,322.7,94.8L322.7,94.8z"/>
<path class="st0" d="M101.5,170.9H52.3c-5.6,0-10.2,4.6-10.2,10.2c0,5.6,4.6,10.2,10.2,10.2h49.2c5.6,0,10.2-4.6,10.2-10.2
	S107.2,170.9,101.5,170.9L101.5,170.9z"/>
<path class="st0" d="M184.6,170.9h-49.2c-5.6,0-10.2,4.6-10.2,10.2c0,5.6,4.6,10.2,10.2,10.2h49.2c5.6,0,10.2-4.6,10.2-10.2
	C194.9,175.5,190.3,170.9,184.6,170.9L184.6,170.9L184.6,170.9z"/>
<path class="st0" d="M267.7,170.9h-49.2c-5.6,0-10.2,4.6-10.2,10.2c0,5.6,4.6,10.2,10.2,10.2h49.2c5.6,0,10.2-4.6,10.2-10.2
	C277.9,175.5,273.3,170.9,267.7,170.9z"/>
<path class="st0" d="M350.8,170.9h-49.2c-5.6,0-10.2,4.6-10.2,10.2c0,5.6,4.6,10.2,10.2,10.2l0,0h49.2c5.6,0,10.2-4.6,10.2-10.2
	S356.4,170.9,350.8,170.9z"/>
<path class="st0" d="M86.6,44.5H64.9c-11.3,0-20.4,9.2-20.4,20.4v21.7c0,11.3,9.2,20.4,20.4,20.4h21.7c11.3,0,20.4-9.2,20.4-20.4
	V64.9C107,53.6,97.9,44.5,86.6,44.5z M86.6,86.6L86.6,86.6H64.9V64.9h21.7L86.6,86.6z"/>
</svg>
