<?xml version="1.0" encoding="utf-8"?>
<!-- Generator: Adobe Illustrator 21.0.0, SVG Export Plug-In . SVG Version: 6.00 Build 0)  -->
<svg version="1.1" id="Layer_1" xmlns="http://www.w3.org/2000/svg" xmlns:xlink="http://www.w3.org/1999/xlink" x="0px" y="0px"
	 viewBox="-539.3 56.8 595.3 595.3" style="enable-background:new -539.3 56.8 595.3 595.3;" xml:space="preserve">
<style type="text/css">
	.st0{fill:#6E7195;}
	.st1{fill:none;stroke:#6E7195;stroke-width:30;stroke-miterlimit:10;}
	.st2{fill:none;stroke:#6E7195;stroke-width:33.8985;stroke-miterlimit:10;}
</style>
<g>
	<path class="st0" d="M-124.3,86.8L26,235.4v362.2c0,13.5-11,24.5-24.5,24.5h-486.2c-13.5,0-24.5-11-24.5-24.5V111.4
		c0-13.5,11-24.5,24.5-24.5H-124.3 M-112,56.8h-372.8c-30.1,0-54.5,24.4-54.5,54.5v486.2c0,30.1,24.4,54.5,54.5,54.5H1.4
		c30.1,0,54.5-24.4,54.5-54.5V222.9L-112,56.8L-112,56.8z"/>
</g>
<g>
	<path class="st0" d="M-82,128.7l65.1,64.4l-65.1,0.1V128.7 M-112,56.8v166.4L56,222.9L-112,56.8L-112,56.8z"/>
</g>
<g>
	<line class="st1" x1="-378.7" y1="378.9" x2="-104.7" y2="378.9"/>
	<polyline class="st2" points="-176.7,450.4 -104.7,378.9 -176.7,307.4 	"/>
</g>
</svg>
