<?xml version="1.0" encoding="utf-8"?>
<!-- Generator: Adobe Illustrator 21.0.0, SVG Export Plug-In . SVG Version: 6.00 Build 0)  -->
<svg version="1.1" id="Layer_1" xmlns="http://www.w3.org/2000/svg" xmlns:xlink="http://www.w3.org/1999/xlink" x="0px" y="0px"
	 viewBox="0 0 469.3 469.3" style="enable-background:new 0 0 469.3 469.3;" xml:space="preserve">
<style type="text/css">
	.st0{fill:#6E7195;}
</style>
<g>
	<g>
		<g>
			<path class="st0" d="M426.7,0h-384C19.1,0,0,19.1,0,42.7v384c0,23.5,19.1,42.7,42.7,42.7h384c23.5,0,42.7-19.1,42.7-42.7v-384
				C469.3,19.1,450.2,0,426.7,0z M448,426.7c0,11.8-9.6,21.3-21.3,21.3H322.5c-1.5-7.1-2.5-14.3-2.5-21.3
				c0-58.8,47.9-106.7,106.7-106.7c7.1,0,14.2,1,21.3,2.5V426.7z M448,300.7c-7.1-1.2-14.2-2.1-21.3-2.1c-70.6,0-128,57.4-128,128
				c0,7.1,0.8,14.2,2.1,21.3H192v-62.1l44.4-11.1c3.6-0.9,6.4-3.6,7.6-7.1c3.1-9.5,7.1-19.1,11.9-28.5c1.7-3.3,1.6-7.2-0.3-10.4
				l-23.6-39.3l57.6-57.6l39.3,23.6c3.2,1.9,7.1,2.1,10.4,0.3c9.4-4.8,19-8.9,28.5-11.9c3.5-1.1,6.2-4,7.1-7.6l11.1-44.4H448V300.7z
				 M448,170.7h-70.4c-4.9,0-9.2,3.3-10.3,8.1l-11.7,46.8c-6.9,2.5-13.8,5.4-20.7,8.7l-41.5-24.9c-4.2-2.5-9.6-1.9-13,1.6L211,280.3
				c-3.5,3.5-4.1,8.8-1.6,13l24.9,41.5c-3.3,6.9-6.2,13.8-8.7,20.7l-46.8,11.7c-4.8,1.2-8.1,5.4-8.1,10.3V448h-128
				c-11.8,0-21.3-9.6-21.3-21.3v-320H448V170.7z M448,85.3H21.3V42.7c0-11.8,9.6-21.3,21.3-21.3h384c11.8,0,21.3,9.6,21.3,21.3
				L448,85.3L448,85.3z"/>
			<circle class="st0" cx="53.3" cy="53.3" r="10.7"/>
			<circle class="st0" cx="96" cy="53.3" r="10.7"/>
			<circle class="st0" cx="138.7" cy="53.3" r="10.7"/>
		</g>
	</g>
</g>
</svg>
