<?xml version="1.0" encoding="utf-8"?>
<!-- Generator: Adobe Illustrator 21.0.0, SVG Export Plug-In . SVG Version: 6.00 Build 0)  -->
<svg version="1.1" id="Capa_1" xmlns="http://www.w3.org/2000/svg" xmlns:xlink="http://www.w3.org/1999/xlink" x="0px" y="0px"
	 viewBox="0 0 57.7 57.7" style="enable-background:new 0 0 57.7 57.7;" xml:space="preserve">
<style type="text/css">
	.st0{fill:#6E7195;}
</style>
<g>
	<path class="st0" d="M56.7,2c0-0.5-0.2-1-0.6-1.4C55.8,0.2,55.3,0,54.7,0h-8.8c-0.2,0-0.4,0-0.6,0.1h-1.7c-0.3,0-0.6,0-1,0.1H14.8
		c-0.4,0-0.7-0.1-1-0.1h-1.4C12.2,0,12,0,11.8,0H3c-0.5,0-1,0.2-1.4,0.6C1.2,1,1,1.5,1,2c0,0.7,0.3,15.9,8.9,17.9V20
		c0,0.1,0,0.1,0,0.2c0.3,9.3,7.6,17,16.8,18.1v15.2h-7.5c-0.6,0-1,0.4-1,1v2.2c0,0.6,0.4,1,1,1h19.2c0.6,0,1-0.4,1-1v-2.2
		c0-0.6-0.4-1-1-1h-7.5V38.3c9.1-1,16.1-8.3,16.7-17.4c0.1-0.2,0.2-0.4,0.2-0.6V20C56.5,18.1,56.7,2.7,56.7,2z M28.7,34.3
		c-8.1,0-14.7-6.6-14.7-14.7V4.3h29.4v15.2C43.4,27.7,36.8,34.3,28.7,34.3z M9.8,15.7C6.4,13.8,5.4,7.3,5.1,4h4.7
		C9.8,4,9.8,15.7,9.8,15.7z M47.9,15.7V4h4.7C52.3,7.3,51.3,13.8,47.9,15.7z"/>
</g>
</svg>
