<?xml version="1.0" encoding="UTF-8" standalone="no"?>
<svg
   xmlns:dc="http://purl.org/dc/elements/1.1/"
   xmlns:cc="http://creativecommons.org/ns#"
   xmlns:rdf="http://www.w3.org/1999/02/22-rdf-syntax-ns#"
   xmlns:svg="http://www.w3.org/2000/svg"
   xmlns="http://www.w3.org/2000/svg"
   xmlns:xlink="http://www.w3.org/1999/xlink"
   version="1.1"
   id="Layer_1"
   x="0px"
   y="0px"
   viewBox="0 0 48.000001 45.999998"
   enable-background="new 0 0 79.1 75.8"
   xml:space="preserve"
   width="48"
   height="46"><metadata
     id="metadata13"><rdf:RDF><cc:Work
         rdf:about=""><dc:format>image/svg+xml</dc:format><dc:type
           rdf:resource="http://purl.org/dc/dcmitype/StillImage" /><dc:title></dc:title></cc:Work></rdf:RDF></metadata><defs
     id="defs11"><linearGradient
       id="linearGradient824"><stop
         style="stop-color:#3bf4d6;stop-opacity:1"
         offset="0"
         id="stop820" /><stop
         style="stop-color:#29b7f0;stop-opacity:1"
         offset="1"
         id="stop822" /></linearGradient><linearGradient
       xlink:href="#linearGradient824"
       id="linearGradient826"
       x1="0.1"
       y1="75.881668"
       x2="79.099998"
       y2="0.2246557"
       gradientUnits="userSpaceOnUse" /><linearGradient
       xlink:href="#linearGradient824"
       id="linearGradient858"
       gradientUnits="userSpaceOnUse"
       x1="0"
       y1="37.900002"
       x2="79.099998"
       y2="37.900002" /><linearGradient
       xlink:href="#linearGradient824"
       id="linearGradient860"
       gradientUnits="userSpaceOnUse"
       x1="0"
       y1="37.900002"
       x2="79.099998"
       y2="37.900002" /></defs><g
     id="g6"
     style="fill:url(#linearGradient826);fill-opacity:1;stroke-width:1.64787138"
     transform="matrix(0.6068268,0,0,0.60686016,0,-4.0517578e-6)"><path
       d="m 58.1,74.1 c 0,1.1 -0.6,1.6 -1.7,1.6 h -6 c -0.5,0 -0.8,-0.2 -1.1,-0.5 C 49,74.9 48.8,74.5 48.7,74.1 L 42.1,51 H 16 L 9.5,74.2 C 9.4,74.6 9.1,75 8.8,75.3 8.5,75.6 8.1,75.8 7.7,75.8 h -6 C 0.6,75.8 0,75.3 0,74.2 0,73.9 0,73.6 0.1,73.5 L 18.8,7.7 c 0.4,-1.5 1,-2.8 1.8,-3.8 0.8,-1 1.6,-1.8 2.6,-2.3 0.9,-0.6 1.9,-1 3,-1.2 1,-0.2 2,-0.4 3,-0.4 0.8,0 1.8,0.1 2.8,0.3 1,0.2 2,0.6 2.9,1.2 0.9,0.6 1.8,1.3 2.6,2.3 0.8,1 1.4,2.2 1.8,3.8 L 58,73.4 c 0,0.2 0.1,0.4 0.1,0.7 z M 31,9.8 C 30.7,8.6 30,8 29.1,8 c -1,0 -1.7,0.6 -2,1.8 L 17.9,43 h 22.3 z"
       id="path2"
       style="fill:url(#linearGradient858);fill-opacity:1;stroke-width:2.71555471" /><path
       d="m 78.6,75.1 c -0.3,0.4 -0.8,0.6 -1.3,0.6 h -5.6 c -0.5,0 -1,-0.2 -1.3,-0.6 -0.3,-0.4 -0.5,-0.9 -0.5,-1.4 V 2.6 c 0,-0.5 0.2,-1 0.5,-1.4 0.3,-0.4 0.8,-0.6 1.3,-0.6 h 5.6 c 0.5,0 1,0.2 1.3,0.6 0.3,0.4 0.5,0.8 0.5,1.4 v 71.1 c 0,0.6 -0.2,1 -0.5,1.4 z"
       id="path4"
       style="fill:url(#linearGradient860);fill-opacity:1;stroke-width:2.71555471" /></g></svg>