<?xml version="1.0" encoding="UTF-8" standalone="no"?>
<svg
   xmlns:dc="http://purl.org/dc/elements/1.1/"
   xmlns:cc="http://creativecommons.org/ns#"
   xmlns:rdf="http://www.w3.org/1999/02/22-rdf-syntax-ns#"
   xmlns:svg="http://www.w3.org/2000/svg"
   xmlns="http://www.w3.org/2000/svg"
   xmlns:xlink="http://www.w3.org/1999/xlink"
   version="1.0"
   id="svg4611"
   height="51"
   width="53">
  <defs
     id="defs4613">
    <linearGradient
       id="linearGradient4177">
      <stop
         id="stop4173"
         offset="0"
         style="stop-color:#3bf4d6;stop-opacity:1" />
      <stop
         id="stop4175"
         offset="1"
         style="stop-color:#29b7f0;stop-opacity:1" />
    </linearGradient>
    <linearGradient
       gradientUnits="userSpaceOnUse"
       y2="9.1507502"
       x2="512.00116"
       y1="502.85022"
       x1="-0.00022324297"
       id="linearGradient4318"
       xlink:href="#linearGradient4177" />
    <linearGradient
       y2="9.1507502"
       x2="512.00116"
       y1="502.85022"
       x1="-0.00022324297"
       gradientUnits="userSpaceOnUse"
       id="linearGradient4320"
       xlink:href="#linearGradient4177" />
    <linearGradient
       y2="9.1507502"
       x2="512.00116"
       y1="502.85022"
       x1="-0.00022324297"
       gradientUnits="userSpaceOnUse"
       id="linearGradient4322"
       xlink:href="#linearGradient4177" />
    <linearGradient
       y2="9.1507502"
       x2="512.00116"
       y1="502.85022"
       x1="-0.00022324297"
       gradientUnits="userSpaceOnUse"
       id="linearGradient4324"
       xlink:href="#linearGradient4177" />
    <linearGradient
       y2="9.1507502"
       x2="512.00116"
       y1="502.85022"
       x1="-0.00022324297"
       gradientUnits="userSpaceOnUse"
       id="linearGradient4326"
       xlink:href="#linearGradient4177" />
    <linearGradient
       y2="9.1507502"
       x2="512.00116"
       y1="502.85022"
       x1="-0.00022324297"
       gradientUnits="userSpaceOnUse"
       id="linearGradient4328"
       xlink:href="#linearGradient4177" />
    <linearGradient
       y2="9.1507502"
       x2="512.00116"
       y1="502.85022"
       x1="-0.00022324297"
       gradientUnits="userSpaceOnUse"
       id="linearGradient4330"
       xlink:href="#linearGradient4177" />
    <linearGradient
       y2="9.1507502"
       x2="512.00116"
       y1="502.85022"
       x1="-0.00022324297"
       gradientUnits="userSpaceOnUse"
       id="linearGradient4332"
       xlink:href="#linearGradient4177" />
    <linearGradient
       y2="9.1507502"
       x2="512.00116"
       y1="502.85022"
       x1="-0.00022324297"
       gradientUnits="userSpaceOnUse"
       id="linearGradient4334"
       xlink:href="#linearGradient4177" />
    <linearGradient
       y2="9.1507502"
       x2="512.00116"
       y1="502.85022"
       x1="-0.00022324297"
       gradientUnits="userSpaceOnUse"
       id="linearGradient4336"
       xlink:href="#linearGradient4177" />
    <linearGradient
       y2="9.1507502"
       x2="512.00116"
       y1="502.85022"
       x1="-0.00022324297"
       gradientUnits="userSpaceOnUse"
       id="linearGradient4338"
       xlink:href="#linearGradient4177" />
    <linearGradient
       y2="9.1507502"
       x2="512.00116"
       y1="502.85022"
       x1="-0.00022324297"
       gradientUnits="userSpaceOnUse"
       id="linearGradient4340"
       xlink:href="#linearGradient4177" />
    <linearGradient
       y2="9.1507502"
       x2="512.00116"
       y1="502.85022"
       x1="-0.00022324297"
       gradientUnits="userSpaceOnUse"
       id="linearGradient4342"
       xlink:href="#linearGradient4177" />
    <linearGradient
       y2="9.1507502"
       x2="512.00116"
       y1="502.85022"
       x1="-0.00022324297"
       gradientUnits="userSpaceOnUse"
       id="linearGradient4344"
       xlink:href="#linearGradient4177" />
    <linearGradient
       y2="9.1507502"
       x2="512.00116"
       y1="502.85022"
       x1="-0.00022324297"
       gradientUnits="userSpaceOnUse"
       id="linearGradient4346"
       xlink:href="#linearGradient4177" />
    <linearGradient
       y2="9.1507502"
       x2="512.00116"
       y1="502.85022"
       x1="-0.00022324297"
       gradientUnits="userSpaceOnUse"
       id="linearGradient4348"
       xlink:href="#linearGradient4177" />
    <linearGradient
       y2="9.1507502"
       x2="512.00116"
       y1="502.85022"
       x1="-0.00022324297"
       gradientUnits="userSpaceOnUse"
       id="linearGradient4350"
       xlink:href="#linearGradient4177" />
    <linearGradient
       y2="9.1507502"
       x2="512.00116"
       y1="502.85022"
       x1="-0.00022324297"
       gradientUnits="userSpaceOnUse"
       id="linearGradient4352"
       xlink:href="#linearGradient4177" />
    <linearGradient
       y2="9.1507502"
       x2="512.00116"
       y1="502.85022"
       x1="-0.00022324297"
       gradientUnits="userSpaceOnUse"
       id="linearGradient4354"
       xlink:href="#linearGradient4177" />
  </defs>
  <metadata
     id="metadata4616">
    <rdf:RDF>
      <cc:Work
         rdf:about="">
        <dc:format>image/svg+xml</dc:format>
        <dc:type
           rdf:resource="http://purl.org/dc/dcmitype/StillImage" />
        <dc:title></dc:title>
      </cc:Work>
    </rdf:RDF>
  </metadata>
  <g
     transform="translate(-256.6798,-880.7963)"
     id="layer1">
    <g
       style="fill:url(#linearGradient4318);fill-opacity:1;stroke-width:9.66362286"
       transform="matrix(0.10351534,0,0,0.10344639,256.67982,879.81397)"
       id="g4310">
      <g
         style="fill:url(#linearGradient4324);fill-opacity:1;stroke-width:9.66362286"
         id="g4253">
        <g
           style="fill:url(#linearGradient4322);fill-opacity:1;stroke-width:9.66362286"
           id="g4251">
          <path
             style="fill:url(#linearGradient4320);fill-opacity:1;stroke-width:9.66362286"
             d="m 467.166,309.626 c -0.216,-0.125 -0.437,-0.241 -0.654,-0.362 0.506,-5.951 0.779,-11.968 0.779,-18.048 0,-84.484 -49.849,-157.533 -121.671,-191.312 10e-4,-0.257 0.019,-0.511 0.019,-0.77 0,-49.506 -40.132,-89.638 -89.638,-89.638 -49.506,0 -89.638,40.132 -89.638,89.638 0,0.257 0.018,0.511 0.019,0.77 C 94.559,133.684 44.71,206.733 44.71,291.216 c 0,6.08 0.273,12.095 0.779,18.045 -0.218,0.125 -0.439,0.241 -0.657,0.365 -42.871,24.753 -57.561,79.576 -32.808,122.448 16.604,28.757 46.733,44.834 77.714,44.834 15.205,0 30.619,-3.874 44.735,-12.024 0.241,-0.14 0.47,-0.293 0.709,-0.434 34.263,23.969 75.925,38.055 120.821,38.055 44.895,0 86.556,-14.086 120.819,-38.054 0.24,0.141 0.467,0.293 0.708,0.433 14.117,8.151 29.528,12.026 44.736,12.026 30.978,0 61.11,-16.079 77.712,-44.834 24.751,-42.873 10.063,-97.697 -32.812,-122.45 z M 256.001,47.912 c 28.244,0 51.222,22.977 51.222,51.222 0,28.245 -22.978,51.222 -51.222,51.222 -28.244,0 -51.222,-22.977 -51.222,-51.222 0.001,-28.245 22.979,-51.222 51.222,-51.222 z M 139.13,400.513 c -3.542,13.215 -12.017,24.263 -23.867,31.103 -7.791,4.499 -16.618,6.877 -25.525,6.877 -18.289,0 -35.319,-9.819 -44.445,-25.626 -14.122,-24.46 -5.711,-55.848 18.75,-69.971 7.791,-4.5 16.619,-6.877 25.526,-6.877 h 0.004 c 18.285,0 35.314,9.819 44.44,25.626 6.841,11.848 8.658,25.651 5.117,38.868 z m 208.946,36.95 c -26.676,16.854 -58.253,26.626 -92.074,26.626 -33.823,0 -65.401,-9.772 -92.078,-26.626 18.576,-27.524 21.076,-64.336 3.358,-95.027 -16.602,-28.756 -46.731,-44.834 -77.71,-44.834 -0.001,0 -0.001,0 -0.004,0 -2.099,0 -4.2,0.081 -6.303,0.23 -0.083,-2.197 -0.138,-4.401 -0.138,-6.617 0,-66.223 37.434,-123.857 92.248,-152.882 14.544,29.858 45.179,50.438 80.626,50.438 35.447,0 66.081,-20.578 80.626,-50.438 54.814,29.025 92.248,86.658 92.248,152.882 0,2.215 -0.055,4.419 -0.138,6.615 -2.1,-0.147 -4.2,-0.229 -6.296,-0.229 -0.003,0 -0.005,0 -0.008,0 -30.978,10e-4 -61.113,16.08 -77.714,44.836 -17.719,30.692 -15.218,67.503 3.357,95.026 z m 118.631,-24.596 c -9.126,15.807 -26.155,25.626 -44.444,25.626 -8.907,0 -17.734,-2.378 -25.528,-6.878 -24.46,-14.122 -32.87,-45.511 -18.748,-69.97 9.125,-15.807 26.156,-25.626 44.445,-25.628 h 0.008 c 8.902,0 17.727,2.377 25.519,6.877 24.461,14.122 32.87,45.512 18.748,69.973 z"
             id="path4249" />
        </g>
      </g>
      <g
         style="fill:url(#linearGradient4326);fill-opacity:1;stroke-width:9.66362286"
         id="g4255" />
      <g
         style="fill:url(#linearGradient4328);fill-opacity:1;stroke-width:9.66362286"
         id="g4257" />
      <g
         style="fill:url(#linearGradient4330);fill-opacity:1;stroke-width:9.66362286"
         id="g4259" />
      <g
         style="fill:url(#linearGradient4332);fill-opacity:1;stroke-width:9.66362286"
         id="g4261" />
      <g
         style="fill:url(#linearGradient4334);fill-opacity:1;stroke-width:9.66362286"
         id="g4263" />
      <g
         style="fill:url(#linearGradient4336);fill-opacity:1;stroke-width:9.66362286"
         id="g4265" />
      <g
         style="fill:url(#linearGradient4338);fill-opacity:1;stroke-width:9.66362286"
         id="g4267" />
      <g
         style="fill:url(#linearGradient4340);fill-opacity:1;stroke-width:9.66362286"
         id="g4269" />
      <g
         style="fill:url(#linearGradient4342);fill-opacity:1;stroke-width:9.66362286"
         id="g4271" />
      <g
         style="fill:url(#linearGradient4344);fill-opacity:1;stroke-width:9.66362286"
         id="g4273" />
      <g
         style="fill:url(#linearGradient4346);fill-opacity:1;stroke-width:9.66362286"
         id="g4275" />
      <g
         style="fill:url(#linearGradient4348);fill-opacity:1;stroke-width:9.66362286"
         id="g4277" />
      <g
         style="fill:url(#linearGradient4350);fill-opacity:1;stroke-width:9.66362286"
         id="g4279" />
      <g
         style="fill:url(#linearGradient4352);fill-opacity:1;stroke-width:9.66362286"
         id="g4281" />
      <g
         style="fill:url(#linearGradient4354);fill-opacity:1;stroke-width:9.66362286"
         id="g4283" />
    </g>
  </g>
</svg>
