<?xml version="1.0" encoding="UTF-8" standalone="no"?>
<svg
   xmlns:dc="http://purl.org/dc/elements/1.1/"
   xmlns:cc="http://creativecommons.org/ns#"
   xmlns:rdf="http://www.w3.org/1999/02/22-rdf-syntax-ns#"
   xmlns:svg="http://www.w3.org/2000/svg"
   xmlns="http://www.w3.org/2000/svg"
   xmlns:xlink="http://www.w3.org/1999/xlink"
   version="1.1"
   id="Слой_1"
   x="0px"
   y="0px"
   viewBox="0 0 50.2 59.2"
   xml:space="preserve"
   width="50"
   height="50"><metadata
     id="metadata982"><rdf:RDF><cc:Work
         rdf:about=""><dc:format>image/svg+xml</dc:format><dc:type
           rdf:resource="http://purl.org/dc/dcmitype/StillImage" /><dc:title>icon</dc:title></cc:Work></rdf:RDF></metadata><defs
     id="defs980"><linearGradient
       id="linearGradient1553"><stop
         style="stop-color:#3cfadb;stop-opacity:1"
         offset="0"
         id="stop1549" /><stop
         style="stop-color:#29b7f0;stop-opacity:1"
         offset="1"
         id="stop1551" /></linearGradient><linearGradient
       xlink:href="#linearGradient1553"
       id="linearGradient1555"
       x1="0.066145249"
       y1="59.084637"
       x2="49.935421"
       y2="0.34765288"
       gradientUnits="userSpaceOnUse" /><linearGradient
       gradientTransform="matrix(0.84317032,0,0,0.84317032,3.8364249,-1.6047296e-8)"
       xlink:href="#linearGradient1553"
       id="linearGradient1557"
       gradientUnits="userSpaceOnUse"
       x1="0.066145249"
       y1="59.084637"
       x2="49.935421"
       y2="0.34765288" /><linearGradient
       gradientTransform="matrix(0.99831366,0,0,0.99831366,0.04232713,-1.8999998e-8)"
       xlink:href="#linearGradient1553"
       id="linearGradient1559"
       gradientUnits="userSpaceOnUse"
       x1="0.066145249"
       y1="59.084637"
       x2="49.935421"
       y2="0.34765288" /><linearGradient
       gradientTransform="matrix(0.99831366,0,0,0.99831366,0.04232713,-1.8999998e-8)"
       xlink:href="#linearGradient1553"
       id="linearGradient1561"
       gradientUnits="userSpaceOnUse"
       x1="0.066145249"
       y1="59.084637"
       x2="49.935421"
       y2="0.34765288" /><linearGradient
       gradientTransform="matrix(0.99831366,0,0,0.99831366,0.04232713,-1.8999998e-8)"
       xlink:href="#linearGradient1553"
       id="linearGradient1563"
       gradientUnits="userSpaceOnUse"
       x1="0.066145249"
       y1="59.084637"
       x2="49.935421"
       y2="0.34765288" /></defs><style
     type="text/css"
     id="style963">
	.st0{fill:#23EDA6;}
	.st1{fill:#16C482;}
</style><title
     id="title965">icon</title><path
     id="path967"
     transform="matrix(1.184,0,0,1.184,-4.5,0)"
     d="M 25 0 C 18.844856 0 13.785156 4.9737635 13.785156 11.128906 C 13.785156 14.080003 14.966625 16.862777 16.990234 18.970703 C 17.833405 21.668848 17.327299 24.536272 15.556641 26.728516 L 10.498047 26.728516 C 6.7880974 26.728516 3.8359375 29.678723 3.8359375 33.388672 L 3.8359375 40.050781 C 3.8359375 41.062585 4.679602 41.90625 5.6914062 41.90625 L 25 41.90625 L 25 41.990234 L 44.308594 41.990234 C 45.320398 41.990234 46.164063 41.146903 46.164062 40.050781 L 46.164062 33.388672 C 46.164062 29.678723 43.211902 26.728516 39.501953 26.728516 L 34.359375 26.728516 C 32.588717 24.536272 32.082611 21.668848 32.925781 18.970703 C 34.94939 16.862777 36.128906 14.080003 36.128906 11.128906 C 36.213224 4.9737675 31.155144 -1.1842379e-15 25 0 z M 25 3.7949219 C 29.047218 3.7949219 32.335938 7.0816892 32.335938 11.128906 C 32.335938 13.152515 31.492315 15.176318 29.974609 16.525391 C 29.721658 16.694024 29.553068 16.947889 29.46875 17.285156 C 28.288312 20.404887 28.457568 23.861737 29.806641 26.728516 L 25 26.728516 L 24.916016 26.728516 L 20.109375 26.728516 C 21.458448 23.777419 21.712022 20.404887 20.447266 17.285156 C 20.362946 17.032205 20.194357 16.778342 19.941406 16.525391 C 18.423699 15.176318 17.580078 13.152515 17.580078 11.128906 C 17.580078 7.0816892 20.952782 3.7949219 25 3.7949219 z M 10.498047 30.523438 L 24.916016 30.523438 L 25 30.523438 L 39.417969 30.523438 C 41.019992 30.523438 42.285156 31.786648 42.285156 33.388672 L 42.285156 38.195312 L 25 38.195312 L 25 38.111328 L 7.6308594 38.111328 L 7.6308594 33.388672 C 7.6308594 31.786648 8.8960232 30.523438 10.498047 30.523438 z M 5.6914062 46.037109 C 4.6796019 46.121429 3.8359375 46.964759 3.8359375 47.976562 C 3.8359375 48.988368 4.679602 49.832031 5.6914062 49.832031 L 25 49.832031 L 25 50 L 44.308594 50 L 44.308594 49.916016 C 45.320398 49.916016 46.164062 49.072351 46.164062 48.060547 C 46.164062 47.048742 45.320398 46.205078 44.308594 46.205078 L 25 46.205078 L 25 46.037109 L 5.6914062 46.037109 z "
     style="fill:url(#linearGradient1557);fill-opacity:1;stroke-width:0.8445946" /></svg>