<?xml version="1.0" encoding="UTF-8" standalone="no"?>
<svg
   xmlns:dc="http://purl.org/dc/elements/1.1/"
   xmlns:cc="http://creativecommons.org/ns#"
   xmlns:rdf="http://www.w3.org/1999/02/22-rdf-syntax-ns#"
   xmlns:svg="http://www.w3.org/2000/svg"
   xmlns="http://www.w3.org/2000/svg"
   xmlns:xlink="http://www.w3.org/1999/xlink"
   version="1.0"
   id="svg4611"
   height="82"
   width="38">
  <defs
     id="defs4613">
    <linearGradient
       id="linearGradient4177">
      <stop
         id="stop4173"
         offset="0"
         style="stop-color:#3bf4d6;stop-opacity:1" />
      <stop
         id="stop4175"
         offset="1"
         style="stop-color:#29b7f0;stop-opacity:1" />
    </linearGradient>
    <linearGradient
       gradientUnits="userSpaceOnUse"
       y2="563.49811"
       x2="540.83276"
       y1="924.65015"
       x1="371.28976"
       id="linearGradient4179"
       xlink:href="#linearGradient4177" />
  </defs>
  <metadata
     id="metadata4616">
    <rdf:RDF>
      <cc:Work
         rdf:about="">
        <dc:format>image/svg+xml</dc:format>
        <dc:type
           rdf:resource="http://purl.org/dc/dcmitype/StillImage" />
        <dc:title></dc:title>
      </cc:Work>
    </rdf:RDF>
  </metadata>
  <g
     transform="translate(-256.6798,-849.7963)"
     id="layer1">
    <g
       style="stroke-width:4.43313599;fill-opacity:1;fill:url(#linearGradient4179)"
       transform="matrix(0.22518519,0,0,0.2259634,173.24941,722.5735)"
       id="layer1-1">
      <path
         d="m 402.72333,925.91455 h -32.22656 c 4.68747,-22.00527 7.03122,-41.92713 7.03125,-59.76562 V 653.45361 c -3e-5,-22.1352 1.95309,-38.60654 5.85937,-49.41406 4.03642,-10.80704 11.78381,-20.31224 23.24219,-28.51562 11.58847,-8.33306 26.04158,-12.49973 43.35937,-12.5 20.5728,2.7e-4 37.82538,5.46902 51.75782,16.40625 14.06233,10.80754 21.09357,26.23721 21.09375,46.28906 -1.8e-4,23.43769 -11.13298,42.6434 -33.39844,57.61719 33.20295,15.62514 49.80449,40.16938 49.80469,73.63281 -2e-4,18.22923 -4.42727,34.57036 -13.28125,49.02344 -8.72413,14.32293 -18.88037,24.54428 -30.46875,30.66406 -11.45847,6.11979 -25.19544,9.17968 -41.21094,9.17969 -18.22926,-10e-6 -33.07299,-6.83594 -44.53125,-20.50782 v 36.32813 c -6e-5,24.99995 -2.34381,46.4192 -7.03125,64.25781 m 7.03125,-118.16406 c 10.15618,16.79689 24.34887,25.19532 42.57812,25.19531 17.57801,1e-5 30.46862,-6.38019 38.67188,-19.14062 8.20297,-12.89059 12.30453,-28.51557 12.30469,-46.875 -1.6e-4,-14.06242 -2.73453,-28.38532 -8.20313,-42.96875 -5.33868,-14.71341 -12.23972,-25.91132 -20.70312,-33.59375 -7.81262,1.95327 -14.84387,2.92983 -21.09375,2.92968 -13.15114,1.5e-4 -19.72665,-3.45037 -19.72657,-10.35156 -8e-5,-6.24984 5.53377,-9.37483 16.60157,-9.375 6.90093,1.7e-4 15.49467,1.56267 25.78125,4.6875 9.24465,-15.62482 13.86704,-32.61699 13.86718,-50.97656 -1.4e-4,-16.40602 -3.64597,-28.97111 -10.9375,-37.69531 -7.16158,-8.7237 -16.53657,-13.08568 -28.125,-13.08594 -9.24488,2.6e-4 -17.18758,2.60443 -23.82812,7.8125 -6.51049,5.20858 -11.00267,11.45858 -13.47656,18.75 -2.47403,7.16169 -3.711,18.94553 -3.71094,35.35156 v 169.33594"
         id="text5540"
         style="font-style:normal;font-weight:normal;font-size:400px;font-family:'Times New Roman';text-align:start;text-anchor:start;fill:url(#linearGradient4179);fill-opacity:1;stroke:none;stroke-width:4.43313599px;stroke-linecap:butt;stroke-linejoin:miter;stroke-opacity:1" />
    </g>
  </g>
</svg>
