<?xml version="1.0" encoding="UTF-8" standalone="no"?>
<svg
   xmlns:dc="http://purl.org/dc/elements/1.1/"
   xmlns:cc="http://creativecommons.org/ns#"
   xmlns:rdf="http://www.w3.org/1999/02/22-rdf-syntax-ns#"
   xmlns:svg="http://www.w3.org/2000/svg"
   xmlns="http://www.w3.org/2000/svg"
   xmlns:xlink="http://www.w3.org/1999/xlink"
   height="41"
   width="41"
   id="svg10"
   enable-background="new 0 0 512 512"
   viewBox="0 0 41 41"
   version="1.1">
  <metadata
     id="metadata16">
    <rdf:RDF>
      <cc:Work
         rdf:about="">
        <dc:format>image/svg+xml</dc:format>
        <dc:type
           rdf:resource="http://purl.org/dc/dcmitype/StillImage" />
        <dc:title></dc:title>
      </cc:Work>
    </rdf:RDF>
  </metadata>
  <defs
     id="defs14">
    <linearGradient
       id="linearGradient875">
      <stop
         id="stop871"
         offset="0"
         style="stop-color:#3bf4d6;stop-opacity:1" />
      <stop
         id="stop873"
         offset="1"
         style="stop-color:#29b7f0;stop-opacity:1" />
    </linearGradient>
    <linearGradient
       gradientUnits="userSpaceOnUse"
       y2="12"
       x2="500"
       y1="500"
       x1="12"
       id="linearGradient877"
       xlink:href="#linearGradient875" />
  </defs>
  <g
     style="stroke-width:11.95121956;fill-opacity:1;fill:url(#linearGradient877)"
     transform="matrix(0.08367347,0,0,0.08367347,-0.92040832,-0.91919043)"
     id="g8">
    <g
       style="stroke-width:11.95121956;fill-opacity:1;fill:url(#linearGradient877)"
       id="g6">
      <path
         style="stroke-width:11.95121956;fill-opacity:1;fill:url(#linearGradient877)"
         id="path2"
         d="M 460.2,402.1 H 381.3 V 325 c 15.1,-17.1 24.2,-39.3 24.2,-63.6 0,-53.6 -44.4,-97.1 -99,-97.1 -54.6,0 -99,43.6 -99,97.1 0,24.3 9.1,46.5 24.2,63.6 v 77.1 H 51.8 V 51.8 h 408.3 v 350.3 z m -153.7,10.1 -33.7,25.9 v -85.3 c 10.5,3.7 21.9,5.8 33.7,5.8 11.8,0 23.2,-2 33.7,-5.8 v 85.3 z m 0,-94.4 c -32.1,0 -58.2,-25.3 -58.2,-56.4 0,-31.1 26.1,-56.4 58.2,-56.4 32.1,0 58.2,25.3 58.2,56.4 0,31.1 -26.1,56.4 -58.2,56.4 z M 480.6,11 H 31.4 C 20.1,11 11,20.1 11,31.4 v 391.1 c 0,11.3 9.1,20.4 20.4,20.4 H 231.7 V 481 c 0,16.5 19,25.9 32.1,15.8 l 42.7,-32.8 42.7,32.8 c 13.1,10.1 32.1,0.7 32.1,-15.8 v -38.1 h 99.3 c 11.3,0 20.4,-9.1 20.4,-20.4 V 31.4 C 501,20.1 491.9,11 480.6,11 Z" />
      <path
         style="stroke-width:11.95121956;fill-opacity:1;fill:url(#linearGradient877)"
         id="path4"
         d="m 151.1,144.9 h 209.7 c 11.3,0 20.4,-9.1 20.4,-20.4 0,-11.3 -9.1,-20.4 -20.4,-20.4 H 151.1 c -11.3,0 -20.4,9.1 -20.4,20.4 0,11.2 9.2,20.4 20.4,20.4 z" />
    </g>
  </g>
</svg>
