<?xml version="1.0" encoding="UTF-8" standalone="no"?>
<svg
   xmlns:dc="http://purl.org/dc/elements/1.1/"
   xmlns:cc="http://creativecommons.org/ns#"
   xmlns:rdf="http://www.w3.org/1999/02/22-rdf-syntax-ns#"
   xmlns:svg="http://www.w3.org/2000/svg"
   xmlns="http://www.w3.org/2000/svg"
   xmlns:xlink="http://www.w3.org/1999/xlink"
   version="1.1"
   id="Слой_1"
   x="0px"
   y="0px"
   viewBox="0 0 50.000002 49.999999"
   xml:space="preserve"
   width="50"
   height="50"><metadata
     id="metadata846"><rdf:RDF><cc:Work
         rdf:about=""><dc:format>image/svg+xml</dc:format><dc:type
           rdf:resource="http://purl.org/dc/dcmitype/StillImage" /><dc:title>icon</dc:title></cc:Work></rdf:RDF></metadata><defs
     id="defs844"><linearGradient
       id="linearGradient852"><stop
         style="stop-color:#3cfadb;stop-opacity:1"
         offset="0"
         id="stop848" /><stop
         style="stop-color:#29b7f0;stop-opacity:1"
         offset="1"
         id="stop850" /></linearGradient><linearGradient
       xlink:href="#linearGradient852"
       id="linearGradient854"
       x1="-0.011733085"
       y1="69.838692"
       x2="73.334572"
       y2="0.28670239"
       gradientUnits="userSpaceOnUse" /><linearGradient
       gradientTransform="matrix(0.67831806,0,0,0.67831806,0.00795887,1.2576511)"
       xlink:href="#linearGradient852"
       id="linearGradient856"
       gradientUnits="userSpaceOnUse"
       x1="-0.011733085"
       y1="69.838692"
       x2="73.334572"
       y2="0.28670239" /><linearGradient
       gradientTransform="matrix(0.67831806,0,0,0.67831806,0.00795887,1.2576511)"
       xlink:href="#linearGradient852"
       id="linearGradient858"
       gradientUnits="userSpaceOnUse"
       x1="-0.011733085"
       y1="69.838692"
       x2="73.334572"
       y2="0.28670239" /><linearGradient
       gradientTransform="matrix(0.67831806,0,0,0.67831806,0.00795887,1.2576511)"
       xlink:href="#linearGradient852"
       id="linearGradient860"
       gradientUnits="userSpaceOnUse"
       x1="-0.011733085"
       y1="69.838692"
       x2="73.334572"
       y2="0.28670239" /><linearGradient
       gradientTransform="matrix(0.67831806,0,0,0.67831806,0.00795887,1.2576511)"
       xlink:href="#linearGradient852"
       id="linearGradient862"
       gradientUnits="userSpaceOnUse"
       x1="-0.011733085"
       y1="69.838692"
       x2="73.334572"
       y2="0.28670239" /><linearGradient
       gradientTransform="matrix(0.67831806,0,0,0.67831806,0.00795887,1.2576511)"
       xlink:href="#linearGradient852"
       id="linearGradient864"
       gradientUnits="userSpaceOnUse"
       x1="-0.011733085"
       y1="69.838692"
       x2="73.334572"
       y2="0.28670239" /><linearGradient
       gradientTransform="matrix(0.67831806,0,0,0.67831806,0.00795887,1.2576511)"
       xlink:href="#linearGradient852"
       id="linearGradient866"
       gradientUnits="userSpaceOnUse"
       x1="-0.011733085"
       y1="69.838692"
       x2="73.334572"
       y2="0.28670239" /><linearGradient
       gradientTransform="matrix(0.67831806,0,0,0.67831806,0.00795887,1.2576511)"
       xlink:href="#linearGradient852"
       id="linearGradient868"
       gradientUnits="userSpaceOnUse"
       x1="-0.011733085"
       y1="69.838692"
       x2="73.334572"
       y2="0.28670239" /><linearGradient
       gradientTransform="matrix(0.67831806,0,0,0.67831806,0.00795887,1.2576511)"
       xlink:href="#linearGradient852"
       id="linearGradient870"
       gradientUnits="userSpaceOnUse"
       x1="-0.011733085"
       y1="69.838692"
       x2="73.334572"
       y2="0.28670239" /><linearGradient
       gradientTransform="matrix(0.67831806,0,0,0.67831806,0.00795887,1.2576511)"
       xlink:href="#linearGradient852"
       id="linearGradient872"
       gradientUnits="userSpaceOnUse"
       x1="-0.011733085"
       y1="69.838692"
       x2="73.334572"
       y2="0.28670239" /><linearGradient
       gradientTransform="matrix(0.67831806,0,0,0.67831806,0.00795887,1.2576511)"
       xlink:href="#linearGradient852"
       id="linearGradient874"
       gradientUnits="userSpaceOnUse"
       x1="-0.011733085"
       y1="69.838692"
       x2="73.334572"
       y2="0.28670239" /></defs><style
     type="text/css"
     id="style815">
	.st0{fill:#16C482;}
	.st1{fill:#23EDA6;}
</style><title
     id="title817">icon</title><path
     id="path819"
     d="M 23.75 1.2578125 C 21.308055 1.2578125 19.271484 3.2245982 19.271484 5.734375 C 19.271484 7.7014974 20.561119 9.3973263 22.392578 10.007812 L 22.392578 10.210938 L 22.392578 14.28125 C 22.392578 15.0274 23.00385 15.638672 23.75 15.638672 C 24.49615 15.638672 25.105469 15.0274 25.105469 14.28125 L 25.105469 10.210938 L 25.105469 10.007812 C 27.479582 9.2616627 28.768162 6.8194257 28.089844 4.4453125 C 27.479357 2.5460219 25.717122 1.2578125 23.75 1.2578125 z M 11.078125 9.1972656 C 9.8189968 9.2481395 8.6727084 10.025029 8.2148438 11.296875 C 7.6043575 12.992671 8.4194392 14.823107 10.115234 15.433594 C 10.386561 15.569257 10.794181 15.638672 11.201172 15.638672 C 11.608163 15.638672 11.946525 15.569259 12.353516 15.433594 L 12.556641 15.638672 L 14.660156 17.740234 C 15.20281 18.215057 16.083771 18.148124 16.558594 17.605469 C 16.965584 17.130647 16.965584 16.31662 16.558594 15.841797 L 14.457031 13.738281 L 14.251953 13.535156 C 14.862439 11.839361 14.049311 10.008924 12.353516 9.3984375 C 11.929567 9.245816 11.497834 9.1803077 11.078125 9.1972656 z M 23.75 18.011719 C 19.883587 18.147383 16.89754 21.336712 17.033203 25.203125 C 17.168867 28.866042 20.087082 31.850138 23.75 31.917969 C 27.616413 32.053633 30.80379 29.001706 30.939453 25.203125 C 31.007283 21.336712 28.022663 18.147383 24.15625 18.011719 L 23.75 18.011719 z M 44.072266 19.800781 C 43.724627 19.826218 43.385849 19.978672 43.148438 20.25 C 42.673615 20.792654 42.742502 21.675569 43.285156 22.150391 L 44.980469 23.642578 L 34.466797 23.642578 C 33.720647 23.642578 33.109375 24.251897 33.109375 24.998047 C 33.109375 25.744197 33.720647 26.355469 34.466797 26.355469 L 44.980469 26.355469 L 43.216797 27.847656 C 42.674143 28.322479 42.607208 29.203439 43.082031 29.746094 C 43.353358 30.017421 43.692618 30.222656 44.099609 30.222656 C 44.438768 30.222656 44.709142 30.086309 44.980469 29.882812 L 49.525391 26.015625 L 49.660156 25.880859 L 49.728516 25.8125 C 49.728516 25.74467 49.796875 25.677734 49.796875 25.677734 L 49.865234 25.609375 C 49.865234 25.541545 49.931641 25.474082 49.931641 25.40625 L 49.931641 25.337891 L 49.931641 25.066406 C 49.931641 24.930742 50 24.79582 50 24.660156 C 50 24.524493 49.931641 24.456504 49.931641 24.388672 L 49.865234 24.320312 C 49.865234 24.252482 49.796875 24.185547 49.796875 24.185547 L 49.728516 24.117188 L 49.59375 23.980469 L 45.048828 20.115234 C 44.777501 19.877823 44.419904 19.775344 44.072266 19.800781 z M 4.8652344 20.533203 C 4.2939634 20.480209 3.7054766 20.538072 3.1289062 20.724609 C 0.75479309 21.470759 -0.53521237 23.980827 0.2109375 26.287109 C 0.95708736 28.59339 3.4671561 29.951228 5.7734375 29.205078 C 7.1979054 28.798087 8.2844155 27.643745 8.6914062 26.287109 C 8.7592382 26.354939 8.8266993 26.355469 8.8945312 26.355469 L 12.962891 26.355469 C 13.709041 26.355469 14.320313 25.744197 14.320312 24.998047 C 14.320312 24.251897 13.709041 23.642578 12.962891 23.642578 L 8.8945312 23.642578 L 8.6914062 23.642578 C 8.1317939 21.861993 6.5790474 20.692184 4.8652344 20.533203 z M 15.482422 31.900391 C 15.151742 31.900391 14.829208 32.018448 14.591797 32.255859 L 12.488281 34.359375 L 12.285156 34.5625 C 10.589361 33.884182 8.7583961 34.767096 8.0800781 36.462891 C 7.40176 38.158687 8.2827204 39.989651 9.9785156 40.667969 C 11.674311 41.346287 13.507229 40.465326 14.185547 38.769531 C 14.456875 38.023381 14.456875 37.209041 14.185547 36.462891 L 14.388672 36.259766 L 16.490234 34.15625 C 16.965056 33.613596 16.96648 32.730682 16.423828 32.255859 C 16.152501 32.018448 15.813102 31.900391 15.482422 31.900391 z M 23.681641 34.359375 L 23.681641 34.367188 C 22.967517 34.403751 22.392578 34.993997 22.392578 35.716797 L 22.392578 39.785156 L 22.392578 39.990234 C 20.018465 40.668552 18.661526 43.110261 19.339844 45.484375 C 19.87633 47.42914 21.674526 48.771482 23.681641 48.736328 L 23.681641 48.740234 C 23.68969 48.740234 23.69704 48.738322 23.705078 48.738281 C 23.720242 48.737933 23.734813 48.740741 23.75 48.740234 L 23.75 48.734375 C 26.226111 48.698032 28.158203 46.749966 28.158203 44.263672 C 28.158203 42.29655 26.868568 40.600721 25.037109 39.990234 L 25.037109 39.785156 L 25.037109 35.716797 C 25.037109 34.994164 24.463894 34.404 23.75 34.367188 L 23.75 34.359375 C 23.737995 34.359375 23.726776 34.362967 23.714844 34.363281 C 23.703483 34.362997 23.693067 34.359375 23.681641 34.359375 z "
     style="fill:url(#linearGradient856);fill-opacity:1;stroke-width:1" /></svg>