<?xml version="1.0" encoding="UTF-8" standalone="no"?>
<svg
   xmlns:dc="http://purl.org/dc/elements/1.1/"
   xmlns:cc="http://creativecommons.org/ns#"
   xmlns:rdf="http://www.w3.org/1999/02/22-rdf-syntax-ns#"
   xmlns:svg="http://www.w3.org/2000/svg"
   xmlns="http://www.w3.org/2000/svg"
   xmlns:xlink="http://www.w3.org/1999/xlink"
   version="1.1"
   id="Capa_1"
   x="0px"
   y="0px"
   width="50"
   height="40"
   viewBox="0 0 50 39.999999"
   xml:space="preserve"><metadata
     id="metadata47"><rdf:RDF><cc:Work
         rdf:about=""><dc:format>image/svg+xml</dc:format><dc:type
           rdf:resource="http://purl.org/dc/dcmitype/StillImage" /><dc:title></dc:title></cc:Work></rdf:RDF></metadata><defs
     id="defs45"><linearGradient
       id="linearGradient923"><stop
         style="stop-color:#3cfadb;stop-opacity:1"
         offset="0"
         id="stop919" /><stop
         style="stop-color:#29b7f0;stop-opacity:1"
         offset="1"
         id="stop921" /></linearGradient><linearGradient
       xlink:href="#linearGradient923"
       id="linearGradient925"
       x1="0"
       y1="455.6412"
       x2="509.38583"
       y2="53.75565"
       gradientUnits="userSpaceOnUse" /><linearGradient
       y2="51"
       x2="509.23193"
       y1="458.38925"
       x1="0"
       gradientUnits="userSpaceOnUse"
       id="linearGradient820"
       xlink:href="#linearGradient923" /><linearGradient
       y2="51"
       x2="509.23193"
       y1="458.38925"
       x1="0"
       gradientUnits="userSpaceOnUse"
       id="linearGradient822"
       xlink:href="#linearGradient923" /><linearGradient
       y2="51"
       x2="509.23193"
       y1="458.38925"
       x1="0"
       gradientUnits="userSpaceOnUse"
       id="linearGradient824"
       xlink:href="#linearGradient923" /><linearGradient
       y2="51"
       x2="509.23193"
       y1="458.38925"
       x1="0"
       gradientUnits="userSpaceOnUse"
       id="linearGradient826"
       xlink:href="#linearGradient923" /></defs><g
     id="g10"
     transform="matrix(0.09816664,0,0,0.09950298,4.7561e-7,-5.3403239)"
     style="fill:url(#linearGradient925);fill-opacity:1;stroke-width:10.11812401"><g
       id="g8"
       style="fill:url(#linearGradient826);fill-opacity:1;stroke-width:10.11812401"><path
         d="m 396.283,310.907 c -3.809,-1.52 -7.143,-0.853 -9.996,1.998 l -18.274,18.274 c -1.711,1.708 -2.573,3.806 -2.573,6.276 v 35.978 c 0,12.565 -4.463,23.314 -13.408,32.264 -8.952,8.945 -19.701,13.418 -32.264,13.418 H 82.224 c -12.562,0 -23.317,-4.473 -32.264,-13.418 -8.947,-8.949 -13.418,-19.698 -13.418,-32.264 V 135.895 c 0,-12.563 4.471,-23.317 13.418,-32.265 8.947,-8.945 19.702,-13.418 32.264,-13.418 H 319.77 c 4.186,0 8.47,0.571 12.847,1.714 3.433,1.141 6.472,0.381 9.134,-2.284 l 13.986,-13.99 c 2.286,-2.281 3.138,-5.043 2.57,-8.278 -0.571,-3.044 -2.286,-5.234 -5.141,-6.565 -10.28,-4.752 -21.412,-7.139 -33.403,-7.139 H 82.224 C 59.576,53.67 40.207,61.712 24.122,77.796 8.042,93.882 0,113.246 0,135.897 V 373.44 c 0,22.647 8.042,42.014 24.123,58.098 16.084,16.088 35.454,24.13 58.102,24.13 h 237.539 c 22.647,0 42.014,-8.042 58.098,-24.13 16.088,-16.084 24.13,-35.45 24.13,-58.098 v -54.245 c -0.001,-4.004 -1.908,-6.761 -5.709,-8.288 z"
         id="path2"
         style="fill:url(#linearGradient820);fill-opacity:1;stroke-width:10.11812401" /><path
         d="m 182.721,300.354 v 82.221 H 264.95 L 456.81,190.716 374.582,108.491 Z m 70.803,54.815 v 0 l -15.99,-0.007 v -27.401 h -27.406 v -15.984 l 33.12,-33.12 43.396,43.4 z M 378.861,159.023 278.93,258.951 c -3.234,3.241 -6.376,3.334 -9.421,0.288 -3.043,-3.046 -2.95,-6.186 0.287,-9.419 l 99.931,-99.929 c 3.233,-3.239 6.368,-3.333 9.421,-0.287 3.053,3.046 2.943,6.185 -0.287,9.419 z"
         id="path4"
         style="fill:url(#linearGradient822);fill-opacity:1;stroke-width:10.11812401" /><path
         d="M 501.346,107.348 457.95,63.952 c -5.328,-5.33 -11.796,-7.995 -19.413,-7.995 -7.615,0 -14.086,2.665 -19.411,7.995 l -26.269,26.263 82.228,82.229 26.262,-26.268 c 5.328,-5.327 7.991,-11.8 7.991,-19.414 0,-7.614 -2.664,-14.084 -7.992,-19.414 z"
         id="path6"
         style="fill:url(#linearGradient824);fill-opacity:1;stroke-width:10.11812401" /></g></g></svg>