<?xml version="1.0" encoding="utf-8"?>
<!-- Generator: Adobe Illustrator 21.0.0, SVG Export Plug-In . SVG Version: 6.00 Build 0)  -->
<svg version="1.1" id="Слой_1" xmlns="http://www.w3.org/2000/svg" xmlns:xlink="http://www.w3.org/1999/xlink" x="0px" y="0px"
	 viewBox="0 0 83.7 35.8" style="enable-background:new 0 0 83.7 35.8;" xml:space="preserve">
<style type="text/css">
	.st0{opacity:0.4;}
	.st1{fill:#888BB0;}
	.st2{opacity:0.4;fill:url(#SVGID_1_);enable-background:new    ;}
	.st3{fill:url(#SVGID_2_);}
	.st4{fill:#6F7292;}
</style>
<g class="st0">
	<g>
		<path class="st1" d="M5.3,6.7C5.2,6,5.8,5.3,6.6,5.3C7.3,5.2,8,5.8,8,6.6C8.1,7.3,7.5,8,6.7,8C6,8,5.3,7.5,5.3,6.7 M4.7,6.8
			c0.1,1,1,1.9,2,1.8c1-0.1,1.9-1,1.8-2s-1-1.9-2-1.8C5.5,4.8,4.6,5.7,4.7,6.8L4.7,6.8z"/>
	</g>
</g>
<linearGradient id="SVGID_1_" gradientUnits="userSpaceOnUse" x1="740.8862" y1="49.7854" x2="746.9173" y2="35.2854" gradientTransform="matrix(-4.524913e-02 -0.7393 0.7393 -4.524913e-02 9.008 558.5716)">
	<stop  offset="0" style="stop-color:#42435D;stop-opacity:0"/>
	<stop  offset="1" style="stop-color:#888BB0"/>
</linearGradient>
<path class="st2" d="M1.2,6.9c-0.1-3,2.1-5.6,5.1-5.8c3-0.1,5.6,2.1,5.8,5.1c0.1,3-2.1,5.6-5.1,5.8S1.4,10,1.2,6.9 M0,7
	c0.2,3.7,3.4,6.4,7,6.2c3.7-0.2,6.4-3.4,6.2-7S9.8-0.2,6.2,0C2.6,0.2-0.2,3.4,0,7L0,7z"/>
<g class="st0">
	
		<linearGradient id="SVGID_2_" gradientUnits="userSpaceOnUse" x1="740.0048" y1="50.6026" x2="713.6298" y2="112.1026" gradientTransform="matrix(-4.524913e-02 -0.7393 0.7393 -4.524913e-02 9.008 558.5716)">
		<stop  offset="0" style="stop-color:#42435D;stop-opacity:0"/>
		<stop  offset="1" style="stop-color:#888BB0"/>
	</linearGradient>
	<path class="st3" d="M80.6,33.4C80.6,33.5,80.6,33.5,80.6,33.4c-0.1,0.3-0.3,0.4-0.4,0.3L11.4,8.9c-0.2-0.1-0.3-0.3-0.2-0.4
		c0.1-0.2,0.3-0.3,0.4-0.2l68.7,24.9C80.4,33.1,80.6,33.2,80.6,33.4z"/>
</g>
<g>
	<g>
		<path class="st4" d="M80.4,34c-0.1-0.7,0.5-1.4,1.3-1.4c0.7-0.1,1.4,0.5,1.4,1.3c0.1,0.7-0.5,1.4-1.3,1.4
			C81.2,35.4,80.5,34.8,80.4,34 M79.9,34c0.1,1,1,1.9,2,1.8c1-0.1,1.9-1,1.8-2c-0.1-1-1-1.9-2-1.8C80.6,32.1,79.8,33,79.9,34
			L79.9,34z"/>
	</g>
</g>
</svg>
