<?xml version="1.0" encoding="utf-8"?>
<!-- Generator: Adobe Illustrator 21.0.0, SVG Export Plug-In . SVG Version: 6.00 Build 0)  -->
<svg version="1.1" id="Слой_1" xmlns="http://www.w3.org/2000/svg" xmlns:xlink="http://www.w3.org/1999/xlink" x="0px" y="0px"
	 viewBox="0 0 67.3 64.3" style="enable-background:new 0 0 67.3 64.3;" xml:space="preserve">
<style type="text/css">
	.st0{fill:url(#SVGID_1_);}
	.st1{fill:url(#SVGID_2_);}
</style>
<linearGradient id="SVGID_1_" gradientUnits="userSpaceOnUse" x1="-15.54" y1="375.4163" x2="-15.54" y2="450.3411" gradientTransform="matrix(0.7407 0 0 0.7407 45.1801 -269.0709)">
	<stop  offset="0" style="stop-color:#5F95EF"/>
	<stop  offset="1" style="stop-color:#A253D4"/>
</linearGradient>
<path class="st0" d="M66.9,33.5L16.3,9.1C16.2,9,16.1,9,16,9c-0.1,0-0.2,0-0.3,0.1c-0.2,0.1-0.4,0.3-0.4,0.4L0,63.5
	c-0.1,0.3,0,0.6,0.2,0.7c0.1,0.1,0.3,0.1,0.5,0.1c0.1,0,0.2,0,0.3-0.1l65.9-29.7c0.3-0.1,0.4-0.4,0.4-0.7
	C67.3,33.8,67.1,33.6,66.9,33.5z M0.8,63l15-52.7l10.7,23.6L0.8,63z M1.4,63.5l25.6-29l38.7,0.1L1.4,63.5z M27.1,33.7L16.4,10.1
	l49.3,23.7L27.1,33.7z"/>
<linearGradient id="SVGID_2_" gradientUnits="userSpaceOnUse" x1="-2.87" y1="369.1385" x2="11.5495" y2="369.1385" gradientTransform="matrix(0.7407 0 0 0.7407 45.1801 -269.0709)">
	<stop  offset="0" style="stop-color:#5F95EF"/>
	<stop  offset="1" style="stop-color:#A253D4"/>
</linearGradient>
<path class="st1" d="M53.3,3.9l-9.2-3.8C44,0.1,43.9,0,43.8,0s-0.4,0.1-0.5,0.2c-0.2,0.2-0.3,0.5-0.2,0.7l2.4,7.3
	c0.1,0.2,0.2,0.4,0.4,0.4c0.1,0,0.2,0.1,0.3,0.1s0.2,0,0.4-0.1L53.4,5c0.2-0.1,0.4-0.4,0.4-0.7C53.7,4.3,53.6,4.1,53.3,3.9z
	 M52.2,4.3l-4.4,0.1l-3-3.3L52.2,4.3z M46,7.6l-1.9-6l3,3.3L46,7.6z M46.7,7.9l1.1-2.7l4.4-0.1L46.7,7.9z"/>
</svg>
