<?xml version="1.0" encoding="utf-8"?>
<!-- Generator: Adobe Illustrator 21.0.0, SVG Export Plug-In . SVG Version: 6.00 Build 0)  -->
<svg version="1.1" id="Слой_1" xmlns="http://www.w3.org/2000/svg" xmlns:xlink="http://www.w3.org/1999/xlink" x="0px" y="0px"
	 viewBox="0 0 59.5 57.4" style="enable-background:new 0 0 59.5 57.4;" xml:space="preserve">
<style type="text/css">
	.st0{fill:url(#SVGID_1_);}
</style>
<linearGradient id="SVGID_1_" gradientUnits="userSpaceOnUse" x1="-19.549" y1="364.5959" x2="-19.549" y2="442.2959" gradientTransform="matrix(0.7407 0 0 0.7407 44.2433 -270.0562)">
	<stop  offset="0" style="stop-color:#5F95EF"/>
	<stop  offset="1" style="stop-color:#A253D4"/>
</linearGradient>
<path class="st0" d="M56.1,0.6c0-0.2-0.1-0.4-0.3-0.5C55.7,0,55.5,0,55.4,0s-0.1,0-0.1,0L0.6,12.7C0.3,12.8,0.1,13,0,13.3
	s0.1,0.6,0.3,0.7l58,43.3c0.1,0.1,0.3,0.1,0.4,0.1s0.2,0,0.4-0.1c0.2-0.1,0.4-0.4,0.4-0.7L56.1,0.6z M54.8,0.7L39.3,21.5L1.5,13.2
	L54.8,0.7z M1.4,14l37.8,8.3l18.7,33.9L1.4,14z M39.9,22L55.4,1.2l3.3,54.7L39.9,22z"/>
</svg>
