<svg xmlns="http://www.w3.org/2000/svg" xmlns:xlink="http://www.w3.org/1999/xlink" width="29" height="26" viewBox="0 0 29 26">
    <defs>
        <path id="a" d="M0 0h29v25.92H0z"/>
    </defs>
    <g fill="none" fill-rule="evenodd">
        <mask id="b" fill="#fff">
            <use xlink:href="#a"/>
        </mask>
        <path fill="#FFF" d="M9.364 13.626l13.06-8.257c.234-.148.476.178.274.37L11.92 16.024a2.315 2.315 0 0 0-.692 1.372l-.367 2.793c-.049.373-.56.41-.66.05L8.79 15.144a1.367 1.367 0 0 1 .574-1.519M.512 12.43l6.682 2.56 2.587 8.54a.779.779 0 0 0 1.25.385l3.724-3.117c.39-.327.946-.343 1.354-.039l6.719 5.007c.462.346 1.117.085 1.233-.488L28.983.974c.127-.626-.473-1.15-1.055-.918L.504 10.916c-.676.268-.67 1.252.008 1.513" mask="url(#b)"/>
    </g>
</svg>
