<?xml version="1.0" encoding="UTF-8"?>
<svg width="79px" height="88px" viewBox="0 0 79 88" version="1.1" xmlns="http://www.w3.org/2000/svg" xmlns:xlink="http://www.w3.org/1999/xlink">
    <!-- Generator: sketchtool 49 (51002) - http://www.bohemiancoding.com/sketch -->
    <title>AA7BAAF3-B750-4CB7-8AA3-B68C922FFF1F</title>
    <desc>Created with sketchtool.</desc>
    <defs>
        <linearGradient x1="-12.4784413%" y1="94.6020384%" x2="104.729031%" y2="-5.65127098%" id="linearGradient-1">
            <stop stop-color="#00FFCE" offset="0%"></stop>
            <stop stop-color="#01AEFF" offset="100%"></stop>
        </linearGradient>
    </defs>
    <g id="Page-1" stroke="none" stroke-width="1" fill="none" fill-rule="evenodd">
        <g id="Vision" transform="translate(-1038.000000, -615.000000)" fill="url(#linearGradient-1)" fill-rule="nonzero">
            <g id="4" transform="translate(1038.000000, 608.000000)">
                <g id="vision-page-icons_outline-03" transform="translate(0.000000, 7.000000)">
                    <path d="M39.1612115,87.675 C60.7659506,87.675 78.322423,70.0558993 78.322423,48.4209892 L78.322423,45.3933633 L78.322423,30.4865108 L78.322423,27.942464 L78.322423,25.3143165 L78.322423,12.1735791 C78.322423,8.91467626 77.0638945,5.86602518 74.7565923,3.5532554 C72.491241,1.26151079 69.4288217,0 66.1985986,0 C62.6327678,0 59.4235202,1.55586331 57.2001199,4.01580935 C57.074267,3.86863309 56.9274387,3.72145683 56.7806104,3.57428058 C54.4733081,1.26151079 51.4318643,0 48.1806657,0 C44.614835,0 41.4055873,1.55586331 39.182187,4.01580935 C39.0563341,3.86863309 38.9095058,3.72145683 38.7626775,3.57428058 C36.4553753,1.26151079 33.4139314,0 30.1627328,0 C26.5969021,0 23.3876544,1.55586331 21.1642541,4.01580935 C18.9408538,1.55586331 15.7106306,0 12.1447999,0 C5.45362346,0 0,5.46654676 0,12.1735791 L0,25.2932914 L0,30.4865108 L0,48.4209892 C0,70.0558993 17.5774479,87.675 39.1612115,87.675 Z M60.3254656,12.1735791 C60.3254656,8.93570144 62.9474,6.30755396 66.1776231,6.30755396 C67.7507837,6.30755396 69.2190669,6.91728417 70.3307671,8.03161871 C71.4424673,9.14595324 72.050756,10.6177158 72.050756,12.1946043 L72.050756,25.3143165 L72.050756,27.942464 L60.3254656,27.942464 L60.3254656,12.1735791 Z M42.3075327,12.1735791 C42.3075327,8.93570144 44.9294671,6.30755396 48.1596902,6.30755396 C49.7328508,6.30755396 51.2011341,6.91728417 52.3128342,8.03161871 C53.4245344,9.14595324 54.0328232,10.6177158 54.0328232,12.1946043 L54.0328232,27.942464 L42.3075327,27.942464 L42.3075327,12.1735791 Z M24.3105753,12.1735791 C24.3105753,8.93570144 26.9325097,6.30755396 30.1627328,6.30755396 C31.7358934,6.30755396 33.2041767,6.91728417 34.3158768,8.03161871 C35.427577,9.14595324 36.0358658,10.6177158 36.0358658,12.1946043 L36.0358658,27.942464 L29.596395,27.942464 L29.596395,31.096241 C29.596395,32.9044065 29.8061497,34.6705216 30.2046838,36.3735612 C30.1837083,36.3735612 30.1837083,36.3735612 30.1627328,36.3735612 C26.9325097,36.3735612 24.3105753,33.7454137 24.3105753,30.507536 L24.3105753,12.1735791 Z M6.29264245,25.2932914 L6.29264245,12.1735791 C6.29264245,8.93570144 8.9145768,6.30755396 12.1447999,6.30755396 C15.375023,6.30755396 17.9969574,8.93570144 17.9969574,12.1735791 L17.9969574,30.4654856 C17.9969574,33.7033633 15.375023,36.3315108 12.1447999,36.3315108 C8.9145768,36.352536 6.29264245,33.7243885 6.29264245,30.4865108 L6.29264245,25.2932914 Z M6.29264245,41.146277 C8.03360686,42.1134353 10.026277,42.6600899 12.1447999,42.6600899 C15.7106306,42.6600899 18.9198783,41.1042266 21.1432786,38.6442806 C23.366679,41.1042266 26.5759266,42.6600899 30.1417573,42.6600899 C30.9598008,42.6600899 31.7778444,42.5759892 32.5749124,42.4077878 C34.6095335,45.9610432 37.5880509,48.9255935 41.1538816,50.965036 C35.7841601,51.9742446 31.6939425,56.7259353 31.6939425,62.4027338 L31.6939425,69.0256655 L34.8402637,69.0256655 L34.8402637,62.4027338 C34.8402637,57.7351439 38.6368246,53.9295863 43.29338,53.9295863 L51.8933247,53.9295863 C52.0401531,53.9295863 52.1869814,53.9295863 52.3547852,53.9295863 L62.0454545,53.9295863 L62.0454545,47.6220324 L52.3547852,47.6220324 C44.3421538,47.6220324 37.6509773,41.8611331 36.1617186,34.250018 L72.0297806,34.250018 L72.0297806,45.3933633 L72.0297806,48.4209892 C72.0297806,66.5867446 57.2840218,81.367446 39.1612115,81.367446 C21.0384013,81.367446 6.29264245,66.5867446 6.29264245,48.399964 L6.29264245,41.146277 Z" id="Shape"></path>
                </g>
            </g>
        </g>
    </g>
</svg>