<?xml version="1.0" encoding="UTF-8"?>
<svg width="91px" height="92px" viewBox="0 0 91 92" version="1.1" xmlns="http://www.w3.org/2000/svg" xmlns:xlink="http://www.w3.org/1999/xlink">
    <!-- Generator: sketchtool 49 (51002) - http://www.bohemiancoding.com/sketch -->
    <title>39A5CAB4-5291-4830-9C02-AF9326DDD9E5</title>
    <desc>Created with sketchtool.</desc>
    <defs>
        <linearGradient x1="-4.56997701%" y1="102.128338%" x2="105.817586%" y2="-3.29227764%" id="linearGradient-1">
            <stop stop-color="#00FFCE" offset="0%"></stop>
            <stop stop-color="#01AEFF" offset="100%"></stop>
        </linearGradient>
    </defs>
    <g id="Page-1" stroke="none" stroke-width="1" fill="none" fill-rule="evenodd">
        <g id="Vision" transform="translate(-1032.000000, -368.000000)" fill="url(#linearGradient-1)" fill-rule="nonzero">
            <g id="2" transform="translate(1032.000000, 368.000000)">
                <g id="vision-page-icons_outline-02">
                    <path d="M45.5,0 C32.5508046,0 20.1873563,5.55223624 11.5475862,15.2319839 C4.10022989,23.5917661 0,34.3610092 0,45.5911927 C0,57.7642087 4.72781609,69.2039106 13.3257471,77.8151147 C21.9236782,86.4263188 33.3457471,91.1614335 45.5,91.1614335 C57.6542529,91.1614335 69.0763218,86.4263188 77.6742529,77.8151147 C86.2721839,69.2039106 91,57.7642087 91,45.5911927 C91,34.3610092 86.8997701,23.5917661 79.4314943,15.2319839 C70.8335632,5.55223624 58.4491954,0 45.5,0 Z M73.4275862,17.9766743 C69.431954,19.8832913 64.6622989,21.3289679 59.4742529,22.2718005 C58.9303448,20.1975688 58.3236782,18.2280963 57.6542529,16.3843349 C56.1062069,12.2568234 54.2652874,9.03024083 52.236092,6.85125 C60.2273563,8.27597477 67.6747126,12.1311124 73.4275862,17.9766743 Z M32.0068966,44.019805 C32.0905747,37.5456881 32.76,31.343945 33.9314943,25.8545642 C37.676092,26.3783601 41.5671264,26.6507339 45.5,26.6507339 C49.4537931,26.6507339 53.3448276,26.3783601 57.0685057,25.8545642 C58.24,31.343945 58.9094253,37.5456881 58.9931034,44.019805 L32.0068966,44.019805 Z M59.014023,47.1625803 C58.9303448,53.6366972 58.2609195,59.8384404 57.0894253,65.3278211 C53.3448276,64.8040252 49.4537931,64.5316514 45.5209195,64.5316514 C41.5671264,64.5316514 37.676092,64.8040252 33.9524138,65.3278211 C32.7809195,59.8384404 32.1114943,53.6366972 32.0278161,47.1625803 L59.014023,47.1625803 Z M45.5209195,6.66268349 C48.8052874,6.66268349 52.1524138,10.6225803 54.7255172,17.4947821 C55.3321839,19.1290252 55.8970115,20.9099312 56.3781609,22.7746445 C52.8845977,23.2565367 49.2236782,23.5079587 45.5209195,23.5079587 C41.8181609,23.5079587 38.1781609,23.2565367 34.6636782,22.7746445 C35.1448276,20.9099312 35.7096552,19.1499771 36.3163218,17.4947821 C38.8894253,10.6016284 42.2365517,6.66268349 45.5209195,6.66268349 Z M38.8057471,6.87220183 C36.7556322,9.05119266 34.9147126,12.2568234 33.3875862,16.4052867 C32.6972414,18.2280963 32.0905747,20.1975688 31.5675862,22.2927523 C26.3795402,21.3499197 21.6098851,19.9042431 17.6142529,17.9976261 C23.3462069,12.1311124 30.7935632,8.27597477 38.8057471,6.87220183 Z M15.3967816,20.4070872 C19.7689655,22.6070298 25.0616092,24.2831766 30.8354023,25.3307683 C29.6429885,31.0087156 28.9526437,37.3780734 28.8689655,43.9988532 L6.31770115,43.9988532 C6.65241379,35.3457454 9.83218391,27.0488188 15.3967816,20.4070872 Z M6.31770115,47.1625803 L28.8689655,47.1625803 C28.9526437,53.8043119 29.6429885,60.1527179 30.8354023,65.8306651 C25.0616092,66.8782569 19.7689655,68.5544037 15.3967816,70.7543463 C10.0204598,64.3011812 6.67333333,56.1090138 6.31770115,47.1625803 Z M17.5933333,73.1638073 C21.5889655,71.2571904 26.3586207,69.8115138 31.5466667,68.8686812 C32.0905747,70.9429128 32.6972414,72.9123853 33.3666667,74.7561468 C34.9147126,78.9046101 36.7556322,82.1102408 38.8057471,84.2892317 C30.5843678,82.8854587 23.2206897,78.8836583 17.5933333,73.1638073 Z M45.5209195,84.49875 C42.2365517,84.49875 38.8894253,80.5388532 36.3163218,73.6666514 C35.7096552,72.0324083 35.1448276,70.2515023 34.6636782,68.386789 C38.1572414,67.9048968 41.8181609,67.6534748 45.5209195,67.6534748 C49.2236782,67.6534748 52.8636782,67.9048968 56.3781609,68.386789 C55.8970115,70.2515023 55.3321839,72.0114564 54.7255172,73.6666514 C52.1524138,80.559805 48.7843678,84.49875 45.5209195,84.49875 Z M52.2151724,84.3101835 C54.2652874,82.1311927 56.1062069,78.9255619 57.6542529,74.7770986 C58.3445977,72.954289 58.9512644,70.9848165 59.4742529,68.889633 C64.6622989,69.8324656 69.431954,71.2781422 73.4275862,73.1847592 C67.8002299,78.8836583 60.4365517,82.8854587 52.2151724,84.3101835 Z M75.6241379,70.7543463 C71.251954,68.5544037 65.9593103,66.8782569 60.1855172,65.8306651 C61.377931,60.1527179 62.0682759,53.7833601 62.151954,47.1625803 L84.7032184,47.1625803 C84.3685057,56.1090138 81.0004598,64.3011812 75.6241379,70.7543463 Z M62.151954,44.019805 C62.0682759,37.3780734 61.377931,31.0087156 60.1855172,25.3517202 C65.9593103,24.2831766 71.251954,22.6279817 75.6241379,20.428039 C81.1678161,27.0697706 84.3685057,35.3666972 84.7032184,44.0407569 L62.151954,44.0407569 L62.151954,44.019805 Z" id="Shape"></path>
                </g>
            </g>
        </g>
    </g>
</svg>