<?xml version="1.0" encoding="UTF-8"?>
<svg width="76px" height="93px" viewBox="0 0 76 93" version="1.1" xmlns="http://www.w3.org/2000/svg" xmlns:xlink="http://www.w3.org/1999/xlink">
    <!-- Generator: sketchtool 49 (51002) - http://www.bohemiancoding.com/sketch -->
    <title>302DFCD3-DAEF-4438-B516-19034167C411</title>
    <desc>Created with sketchtool.</desc>
    <defs>
        <linearGradient x1="-14.5268428%" y1="94.8613507%" x2="107.212406%" y2="-0.519963495%" id="linearGradient-1">
            <stop stop-color="#00FFCE" offset="0%"></stop>
            <stop stop-color="#01AEFF" offset="100%"></stop>
        </linearGradient>
        <linearGradient x1="-188.024654%" y1="196.636595%" x2="316.18341%" y2="-125.440678%" id="linearGradient-2">
            <stop stop-color="#00FFCE" offset="0%"></stop>
            <stop stop-color="#01AEFF" offset="100%"></stop>
        </linearGradient>
    </defs>
    <g id="Page-1" stroke="none" stroke-width="1" fill="none" fill-rule="evenodd">
        <g id="Vision" transform="translate(-221.000000, -618.000000)" fill-rule="nonzero">
            <g id="3" transform="translate(221.000000, 608.000000)">
                <g id="vision-page-icons_outline-04" transform="translate(0.000000, 10.000000)">
                    <path d="M49.0981609,92.2526651 C63.4908046,92.2526651 75.2057471,80.465877 75.2057471,65.9849658 C75.2057471,52.5564465 65.1643678,41.4642369 52.236092,39.906697 L52.236092,34.8131207 L72.0468966,34.8131207 L72.0468966,14.2283371 L56.963908,14.2283371 L56.963908,0 L4.72781609,0 L4.72781609,20.5426879 L19.8108046,20.5426879 L19.8108046,28.4566743 L0,28.4566743 L0,42.9586333 L0,48.9993622 L0,57.1869704 L0,63.5013212 L0,77.7296583 L25.7728736,77.7296583 C30.0613793,86.3592711 38.9103448,92.2526651 49.0981609,92.2526651 Z M68.9298851,65.9849658 C68.9298851,76.9929841 60.0390805,85.9383144 49.0981609,85.9383144 C42.5503448,85.9383144 36.7137931,82.7179954 33.1156322,77.771754 C32.3834483,76.7825057 31.7558621,75.7301139 31.2328736,74.6145786 C30.7517241,73.6042825 30.3542529,72.5518907 30.0404598,71.4574032 C29.5383908,69.7104328 29.2873563,67.8792711 29.2873563,65.963918 C29.2873563,65.1430524 29.3291954,64.3221868 29.4337931,63.522369 C29.5593103,62.4489294 29.7894253,61.3965376 30.0822989,60.3651936 C30.396092,59.2707062 30.8144828,58.2183144 31.2956322,57.2080182 C32.8645977,53.9876993 35.2703448,51.2514806 38.2409195,49.2940319 C38.3873563,49.2098405 38.5128736,49.1046014 38.6593103,49.02041 C41.1068966,47.483918 43.9101149,46.4736219 46.9016092,46.1368565 C47.6337931,46.0526651 48.365977,46.0105695 49.1190805,46.0105695 C50.185977,46.0105695 51.231954,46.0947608 52.2570115,46.2631435 C61.6917241,47.7785877 68.9298851,56.0503872 68.9298851,65.9849658 Z M65.7710345,20.5426879 L65.7710345,28.4566743 L52.236092,28.4566743 L26.0866667,28.4566743 L26.0866667,20.5426879 L56.963908,20.5426879 L65.7710345,20.5426879 Z M11.0036782,14.2283371 L11.0036782,6.3143508 L50.688046,6.3143508 L50.688046,14.2283371 L19.8108046,14.2283371 L11.0036782,14.2283371 Z M6.27586207,34.7920729 L19.8108046,34.7920729 L45.9602299,34.7920729 L45.9602299,39.8856492 C42.7386207,40.2645103 39.7052874,41.2537585 36.9648276,42.7060592 L6.27586207,42.7060592 L6.27586207,34.7920729 Z M6.27586207,71.4574032 L6.27586207,63.5434169 L23.0951724,63.5434169 C23.0114943,64.3432346 22.9905747,65.1641002 22.9905747,65.9849658 C22.9905747,67.8582232 23.1997701,69.689385 23.5554023,71.478451 L6.27586207,71.478451 L6.27586207,71.4574032 Z M6.27586207,57.2290661 L6.27586207,49.3150797 L28.9317241,49.3150797 C27.028046,51.6513895 25.5009195,54.3244647 24.4758621,57.2290661 L6.27586207,57.2290661 Z" id="Shape" fill="url(#linearGradient-1)"></path>
                    <path d="M52.236092,52.3249203 L49.7885057,52.3249203 L49.7885057,55.1242825 L49.0772414,55.1242825 L47.4873563,55.1242825 L47.4873563,52.3249203 L45.9393103,52.3249203 L44.3494253,52.3249203 L44.3494253,55.1242825 L44.0774713,55.1242825 L42.5085057,55.1242825 L40.7931034,55.1242825 L40.7931034,57.2290661 L40.7931034,58.2814579 L42.5085057,58.2814579 L42.5085057,60.3862415 L42.5085057,63.5434169 L42.5085057,64.0064692 L42.5085057,67.1636446 L42.5085057,71.478451 L42.5085057,73.667426 L40.7931034,73.667426 L40.7931034,74.6145786 L40.7931034,76.8246014 L42.5085057,76.8246014 L44.0774713,76.8246014 L44.3494253,76.8246014 L44.3494253,77.771754 L44.3494253,79.6239636 L47.4873563,79.6239636 L47.4873563,77.771754 L47.4873563,76.8246014 L49.7885057,76.8246014 L49.7885057,77.771754 L49.7885057,79.6239636 L52.9264368,79.6239636 L52.9264368,76.8035535 C56.2735632,76.6562187 58.9512644,73.8568565 58.9512644,70.4681549 L58.9512644,70.3418679 C58.9512644,67.9003189 57.5705747,65.7744875 55.5413793,64.7010478 C56.2526437,63.7117995 56.691954,62.5120729 56.691954,61.1860592 L56.691954,61.0597722 C56.691954,58.5550797 55.143908,56.3871526 52.9473563,55.5241913 L52.9473563,52.3038724 L52.236092,52.3038724 L52.236092,52.3249203 Z M55.8133333,70.3418679 L55.8133333,70.4681549 C55.8133333,72.2361731 54.3908046,73.667426 52.6335632,73.667426 L52.2151724,73.667426 L49.0772414,73.667426 L45.6464368,73.667426 L45.6464368,71.4574032 L45.6464368,67.1425968 L45.9393103,67.1425968 L49.0772414,67.1425968 L50.7508046,67.1425968 L52.2151724,67.1425968 L52.6335632,67.1425968 C54.3908046,67.1636446 55.8133333,68.5948975 55.8133333,70.3418679 Z M53.554023,61.08082 L53.554023,61.2071071 C53.554023,62.2174032 53.0310345,63.0803645 52.236092,63.5855125 C51.8177011,63.8591344 51.3156322,64.0064692 50.7717241,64.0064692 L49.0981609,64.0064692 L45.9602299,64.0064692 L45.6673563,64.0064692 L45.6673563,63.5434169 L45.6673563,60.3862415 L45.6673563,58.2814579 L49.0981609,58.2814579 L50.7717241,58.2814579 C51.3156322,58.2814579 51.8177011,58.4287927 52.236092,58.7024146 C53.0101149,59.2075626 53.554023,60.0705239 53.554023,61.08082 Z" id="Shape" fill="url(#linearGradient-2)"></path>
                </g>
            </g>
        </g>
    </g>
</svg>